<mxfile host="app.diagrams.net" modified="2023-03-19T20:33:05.790Z" agent="5.0 (Windows NT 10.0; Win64; x64) AppleWebKit/537.36 (KHTML, like Gecko) Chrome/111.0.0.0 Safari/537.36" etag="yn_Wzp68qukO2XS4LnNw" version="21.0.8" type="github">
  <diagram id="6a731a19-8d31-9384-78a2-239565b7b9f0" name="Page-1">
    <mxGraphModel dx="2333" dy="3683" grid="1" gridSize="10" guides="1" tooltips="1" connect="1" arrows="1" fold="1" page="1" pageScale="1" pageWidth="1169" pageHeight="827" background="none" math="0" shadow="0">
      <root>
        <mxCell id="0" />
        <mxCell id="1" parent="0" />
        <mxCell id="1351" value="Logging" style="ellipse;whiteSpace=wrap;html=1;shadow=0;fontFamily=Helvetica;fontSize=20;fontColor=#FFFFFF;align=center;strokeWidth=3;fillColor=#F08705;strokeColor=none;gradientColor=none;" parent="1" vertex="1">
          <mxGeometry x="1796" y="-304.6" width="120" height="120" as="geometry" />
        </mxCell>
        <mxCell id="1352" value="Monitoring" style="ellipse;whiteSpace=wrap;html=1;shadow=0;fontFamily=Helvetica;fontSize=20;fontColor=#FFFFFF;align=center;strokeWidth=3;fillColor=#E85642;strokeColor=none;" parent="1" vertex="1">
          <mxGeometry x="1701" y="356.5" width="120" height="120" as="geometry" />
        </mxCell>
        <mxCell id="1353" value="Storage" style="ellipse;whiteSpace=wrap;html=1;shadow=0;fontFamily=Helvetica;fontSize=20;fontColor=#FFFFFF;align=center;strokeWidth=3;fillColor=#1699D3;strokeColor=none;" parent="1" vertex="1">
          <mxGeometry x="1936" y="806.5" width="120" height="120" as="geometry" />
        </mxCell>
        <mxCell id="1354" value="Network" style="ellipse;whiteSpace=wrap;html=1;shadow=0;fontFamily=Helvetica;fontSize=20;fontColor=#FFFFFF;align=center;strokeWidth=3;fillColor=#736ca8;strokeColor=none;" parent="1" vertex="1">
          <mxGeometry x="1711" y="1171.5" width="120" height="120" as="geometry" />
        </mxCell>
        <mxCell id="1355" value="HA" style="ellipse;whiteSpace=wrap;html=1;shadow=0;fontFamily=Helvetica;fontSize=20;fontColor=#FFFFFF;align=center;strokeWidth=3;fillColor=#F08705;strokeColor=none;" parent="1" vertex="1">
          <mxGeometry x="1163.5" y="1309" width="120" height="120" as="geometry" />
        </mxCell>
        <mxCell id="1357" value="Ant" style="rounded=1;fillColor=#f5af58;strokeColor=none;strokeWidth=3;shadow=0;html=1;fontColor=#FFFFFF;" parent="1" vertex="1">
          <mxGeometry x="1366" y="-124.60000000000002" width="120" height="40" as="geometry" />
        </mxCell>
        <mxCell id="1359" style="endArrow=none;strokeWidth=6;strokeColor=#1699D3;html=1;" parent="1" source="1516" target="1350" edge="1">
          <mxGeometry relative="1" as="geometry" />
        </mxCell>
        <mxCell id="1360" style="endArrow=none;strokeWidth=6;strokeColor=#f08705;html=1;" parent="1" source="EwDdD5B7TcxTZYaxsXtc-1546" target="1351" edge="1">
          <mxGeometry relative="1" as="geometry">
            <mxPoint x="1030" y="-480" as="sourcePoint" />
          </mxGeometry>
        </mxCell>
        <mxCell id="1361" style="endArrow=none;strokeWidth=6;strokeColor=#E85642;html=1;" parent="1" source="1351" target="1352" edge="1">
          <mxGeometry relative="1" as="geometry" />
        </mxCell>
        <mxCell id="1362" style="endArrow=none;strokeWidth=6;strokeColor=#1699D3;html=1;" parent="1" source="1352" target="1353" edge="1">
          <mxGeometry relative="1" as="geometry" />
        </mxCell>
        <mxCell id="1363" style="endArrow=none;strokeWidth=6;strokeColor=#736CA8;html=1;" parent="1" source="1356" target="1516" edge="1">
          <mxGeometry relative="1" as="geometry" />
        </mxCell>
        <mxCell id="1364" style="endArrow=none;strokeWidth=6;strokeColor=#736ca8;html=1;" parent="1" source="1353" target="1354" edge="1">
          <mxGeometry relative="1" as="geometry" />
        </mxCell>
        <mxCell id="1365" value="" style="edgeStyle=none;endArrow=none;strokeWidth=6;strokeColor=#F08705;html=1;" parent="1" source="1354" target="1355" edge="1">
          <mxGeometry x="181" y="226.5" width="100" height="100" as="geometry">
            <mxPoint x="181" y="326.5" as="sourcePoint" />
            <mxPoint x="281" y="226.5" as="targetPoint" />
          </mxGeometry>
        </mxCell>
        <mxCell id="1366" value="" style="edgeStyle=none;endArrow=none;strokeWidth=6;strokeColor=#E85642;html=1;" parent="1" source="1355" target="1356" edge="1">
          <mxGeometry x="181" y="226.5" width="100" height="100" as="geometry">
            <mxPoint x="181" y="326.5" as="sourcePoint" />
            <mxPoint x="281" y="226.5" as="targetPoint" />
          </mxGeometry>
        </mxCell>
        <mxCell id="1388" value="Bee" style="rounded=1;fillColor=#f5af58;strokeColor=none;strokeWidth=3;shadow=0;html=1;fontColor=#FFFFFF;" parent="1" vertex="1">
          <mxGeometry x="1306" y="-194.60000000000002" width="120" height="40" as="geometry" />
        </mxCell>
        <mxCell id="1389" value="Hornet" style="rounded=1;fillColor=#f5af58;strokeColor=none;strokeWidth=3;shadow=0;html=1;fontColor=#FFFFFF;" parent="1" vertex="1">
          <mxGeometry x="1296" y="-264.6" width="120" height="40" as="geometry" />
        </mxCell>
        <mxCell id="1390" value="Fly" style="rounded=1;fillColor=#f5af58;strokeColor=none;strokeWidth=3;shadow=0;html=1;fontColor=#FFFFFF;" parent="1" vertex="1">
          <mxGeometry x="1316" y="-334.6" width="120" height="40" as="geometry" />
        </mxCell>
        <mxCell id="1391" value="Termite" style="rounded=1;fillColor=#f5af58;strokeColor=none;strokeWidth=3;shadow=0;html=1;fontColor=#FFFFFF;" parent="1" vertex="1">
          <mxGeometry x="1356" y="-394.6" width="120" height="40" as="geometry" />
        </mxCell>
        <mxCell id="1392" value="Mantis" style="rounded=1;fillColor=#f5af58;strokeColor=none;strokeWidth=3;shadow=0;html=1;fontColor=#FFFFFF;" parent="1" vertex="1">
          <mxGeometry x="1426" y="-454.6" width="120" height="40" as="geometry" />
        </mxCell>
        <mxCell id="1393" value="Ladybug" style="rounded=1;fillColor=#f5af58;strokeColor=none;strokeWidth=3;shadow=0;html=1;fontColor=#FFFFFF;" parent="1" vertex="1">
          <mxGeometry x="1556" y="-454.6" width="120" height="40" as="geometry" />
        </mxCell>
        <mxCell id="1399" value="" style="edgeStyle=none;endArrow=none;strokeWidth=3;strokeColor=#F5AF58;html=1;" parent="1" source="1351" target="1357" edge="1">
          <mxGeometry x="396" y="-514.6" width="100" height="100" as="geometry">
            <mxPoint x="396" y="-414.6" as="sourcePoint" />
            <mxPoint x="496" y="-514.6" as="targetPoint" />
          </mxGeometry>
        </mxCell>
        <mxCell id="1400" value="" style="edgeStyle=none;endArrow=none;strokeWidth=3;strokeColor=#F5AF58;html=1;" parent="1" source="1351" target="1388" edge="1">
          <mxGeometry x="396" y="-514.6" width="100" height="100" as="geometry">
            <mxPoint x="396" y="-414.6" as="sourcePoint" />
            <mxPoint x="496" y="-514.6" as="targetPoint" />
          </mxGeometry>
        </mxCell>
        <mxCell id="1401" value="" style="edgeStyle=none;endArrow=none;strokeWidth=3;strokeColor=#F5AF58;html=1;" parent="1" source="1351" target="1389" edge="1">
          <mxGeometry x="396" y="-514.6" width="100" height="100" as="geometry">
            <mxPoint x="396" y="-414.6" as="sourcePoint" />
            <mxPoint x="496" y="-514.6" as="targetPoint" />
          </mxGeometry>
        </mxCell>
        <mxCell id="1402" value="" style="edgeStyle=none;endArrow=none;strokeWidth=3;strokeColor=#F5AF58;html=1;" parent="1" source="1351" target="1390" edge="1">
          <mxGeometry x="396" y="-514.6" width="100" height="100" as="geometry">
            <mxPoint x="396" y="-414.6" as="sourcePoint" />
            <mxPoint x="496" y="-514.6" as="targetPoint" />
          </mxGeometry>
        </mxCell>
        <mxCell id="1403" value="" style="edgeStyle=none;endArrow=none;strokeWidth=3;strokeColor=#F5AF58;html=1;" parent="1" source="1351" target="1391" edge="1">
          <mxGeometry x="396" y="-514.6" width="100" height="100" as="geometry">
            <mxPoint x="396" y="-414.6" as="sourcePoint" />
            <mxPoint x="496" y="-514.6" as="targetPoint" />
          </mxGeometry>
        </mxCell>
        <mxCell id="1404" value="" style="edgeStyle=none;endArrow=none;strokeWidth=3;strokeColor=#F5AF58;html=1;" parent="1" source="1351" target="1392" edge="1">
          <mxGeometry x="396" y="-514.6" width="100" height="100" as="geometry">
            <mxPoint x="396" y="-414.6" as="sourcePoint" />
            <mxPoint x="496" y="-514.6" as="targetPoint" />
          </mxGeometry>
        </mxCell>
        <mxCell id="1405" value="" style="edgeStyle=none;endArrow=none;strokeWidth=3;strokeColor=#F5AF58;html=1;" parent="1" source="1351" target="1393" edge="1">
          <mxGeometry x="396" y="-514.6" width="100" height="100" as="geometry">
            <mxPoint x="396" y="-414.6" as="sourcePoint" />
            <mxPoint x="496" y="-514.6" as="targetPoint" />
          </mxGeometry>
        </mxCell>
        <mxCell id="1406" value="" style="edgeStyle=none;endArrow=none;strokeWidth=3;strokeColor=#F5AF58;html=1;" parent="1" source="1351" edge="1">
          <mxGeometry x="396" y="-514.6" width="100" height="100" as="geometry">
            <mxPoint x="396" y="-414.6" as="sourcePoint" />
            <mxPoint x="1667.428571428571" y="-354.6" as="targetPoint" />
          </mxGeometry>
        </mxCell>
        <mxCell id="1407" value="" style="edgeStyle=none;endArrow=none;strokeWidth=3;strokeColor=#F5AF58;html=1;" parent="1" source="1351" edge="1">
          <mxGeometry x="396" y="-514.6" width="100" height="100" as="geometry">
            <mxPoint x="396" y="-414.6" as="sourcePoint" />
            <mxPoint x="1691" y="-294.6" as="targetPoint" />
          </mxGeometry>
        </mxCell>
        <mxCell id="1408" value="" style="edgeStyle=none;endArrow=none;strokeWidth=3;strokeColor=#F5AF58;html=1;" parent="1" source="1351" edge="1">
          <mxGeometry x="396" y="-514.6" width="100" height="100" as="geometry">
            <mxPoint x="396" y="-414.6" as="sourcePoint" />
            <mxPoint x="1691" y="-241.52307692307716" as="targetPoint" />
          </mxGeometry>
        </mxCell>
        <mxCell id="1409" value="" style="edgeStyle=none;endArrow=none;strokeWidth=3;strokeColor=#F5AF58;html=1;" parent="1" source="1351" edge="1">
          <mxGeometry x="396" y="-514.6" width="100" height="100" as="geometry">
            <mxPoint x="396" y="-414.6" as="sourcePoint" />
            <mxPoint x="1686" y="-200.38947368421043" as="targetPoint" />
          </mxGeometry>
        </mxCell>
        <mxCell id="1410" value="" style="edgeStyle=none;endArrow=none;strokeWidth=3;strokeColor=#F5AF58;html=1;" parent="1" source="1351" edge="1">
          <mxGeometry x="396" y="-514.6" width="100" height="100" as="geometry">
            <mxPoint x="396" y="-414.6" as="sourcePoint" />
            <mxPoint x="1668.5" y="-134.59999999999957" as="targetPoint" />
          </mxGeometry>
        </mxCell>
        <mxCell id="1411" value="Eagle" style="rounded=1;fillColor=#f08e81;strokeColor=none;strokeWidth=3;shadow=0;html=1;fontColor=#FFFFFF;" parent="1" vertex="1">
          <mxGeometry x="1611" y="516.5" width="120" height="40" as="geometry" />
        </mxCell>
        <mxCell id="1412" value="Pigeon" style="rounded=1;fillColor=#f08e81;strokeColor=none;strokeWidth=3;shadow=0;html=1;fontColor=#FFFFFF;" parent="1" vertex="1">
          <mxGeometry x="1946" y="401.5" width="120" height="40" as="geometry" />
        </mxCell>
        <mxCell id="1413" value="Hawk" style="rounded=1;fillColor=#f08e81;strokeColor=none;strokeWidth=3;shadow=0;html=1;fontColor=#FFFFFF;" parent="1" vertex="1">
          <mxGeometry x="1491" y="436.5" width="120" height="40" as="geometry" />
        </mxCell>
        <mxCell id="1414" value="Falcon" style="rounded=1;fillColor=#f08e81;strokeColor=none;strokeWidth=3;shadow=0;html=1;fontColor=#FFFFFF;" parent="1" vertex="1">
          <mxGeometry x="1521" y="371.5" width="120" height="40" as="geometry" />
        </mxCell>
        <mxCell id="1415" value="Sparrow" style="rounded=1;fillColor=#f08e81;strokeColor=none;strokeWidth=3;shadow=0;html=1;fontColor=#FFFFFF;" parent="1" vertex="1">
          <mxGeometry x="1541" y="291.5" width="120" height="40" as="geometry" />
        </mxCell>
        <mxCell id="1416" value="Stork" style="rounded=1;fillColor=#f08e81;strokeColor=none;strokeWidth=3;shadow=0;html=1;fontColor=#FFFFFF;" parent="1" vertex="1">
          <mxGeometry x="1631" y="221.5" width="120" height="40" as="geometry" />
        </mxCell>
        <mxCell id="1417" value="Flamingo" style="rounded=1;fillColor=#f08e81;strokeColor=none;strokeWidth=3;shadow=0;html=1;fontColor=#FFFFFF;" parent="1" vertex="1">
          <mxGeometry x="1766" y="166.5" width="120" height="40" as="geometry" />
        </mxCell>
        <mxCell id="1418" value="Penguin" style="rounded=1;fillColor=#f08e81;strokeColor=none;strokeWidth=3;shadow=0;html=1;fontColor=#FFFFFF;" parent="1" vertex="1">
          <mxGeometry x="1861" y="251.5" width="120" height="40" as="geometry" />
        </mxCell>
        <mxCell id="1419" value="Owl" style="rounded=1;fillColor=#f08e81;strokeColor=none;strokeWidth=3;shadow=0;html=1;fontColor=#FFFFFF;" parent="1" vertex="1">
          <mxGeometry x="1916" y="321.5" width="120" height="40" as="geometry" />
        </mxCell>
        <mxCell id="1420" value="Albatross" style="rounded=1;fillColor=#f08e81;strokeColor=none;strokeWidth=3;shadow=0;html=1;fontColor=#FFFFFF;" parent="1" vertex="1">
          <mxGeometry x="1691" y="576.5" width="120" height="40" as="geometry" />
        </mxCell>
        <mxCell id="1421" value="Pelican" style="rounded=1;fillColor=#f08e81;strokeColor=none;strokeWidth=3;shadow=0;html=1;fontColor=#FFFFFF;" parent="1" vertex="1">
          <mxGeometry x="1781" y="506.5" width="120" height="40" as="geometry" />
        </mxCell>
        <mxCell id="1422" value="Swallow" style="rounded=1;fillColor=#f08e81;strokeColor=none;strokeWidth=3;shadow=0;html=1;fontColor=#FFFFFF;" parent="1" vertex="1">
          <mxGeometry x="1876" y="461.5" width="120" height="40" as="geometry" />
        </mxCell>
        <mxCell id="1423" value="" style="edgeStyle=none;endArrow=none;strokeWidth=3;strokeColor=#F08E81;html=1;" parent="1" source="1352" target="1411" edge="1">
          <mxGeometry x="31" y="106.5" width="100" height="100" as="geometry">
            <mxPoint x="31" y="206.5" as="sourcePoint" />
            <mxPoint x="131" y="106.5" as="targetPoint" />
          </mxGeometry>
        </mxCell>
        <mxCell id="1424" value="" style="edgeStyle=none;endArrow=none;strokeWidth=3;strokeColor=#F08E81;html=1;" parent="1" source="1352" target="1413" edge="1">
          <mxGeometry x="31" y="106.5" width="100" height="100" as="geometry">
            <mxPoint x="31" y="206.5" as="sourcePoint" />
            <mxPoint x="131" y="106.5" as="targetPoint" />
          </mxGeometry>
        </mxCell>
        <mxCell id="1425" value="" style="edgeStyle=none;endArrow=none;strokeWidth=3;strokeColor=#F08E81;html=1;" parent="1" source="1352" target="1414" edge="1">
          <mxGeometry x="31" y="106.5" width="100" height="100" as="geometry">
            <mxPoint x="31" y="206.5" as="sourcePoint" />
            <mxPoint x="131" y="106.5" as="targetPoint" />
          </mxGeometry>
        </mxCell>
        <mxCell id="1426" value="" style="edgeStyle=none;endArrow=none;strokeWidth=3;strokeColor=#F08E81;html=1;" parent="1" source="1352" target="1415" edge="1">
          <mxGeometry x="31" y="106.5" width="100" height="100" as="geometry">
            <mxPoint x="31" y="206.5" as="sourcePoint" />
            <mxPoint x="131" y="106.5" as="targetPoint" />
          </mxGeometry>
        </mxCell>
        <mxCell id="1427" value="" style="edgeStyle=none;endArrow=none;strokeWidth=3;strokeColor=#F08E81;html=1;" parent="1" source="1352" target="1416" edge="1">
          <mxGeometry x="31" y="106.5" width="100" height="100" as="geometry">
            <mxPoint x="31" y="206.5" as="sourcePoint" />
            <mxPoint x="131" y="106.5" as="targetPoint" />
          </mxGeometry>
        </mxCell>
        <mxCell id="1428" value="" style="edgeStyle=none;endArrow=none;strokeWidth=3;strokeColor=#F08E81;html=1;" parent="1" source="1352" target="1417" edge="1">
          <mxGeometry x="31" y="106.5" width="100" height="100" as="geometry">
            <mxPoint x="31" y="206.5" as="sourcePoint" />
            <mxPoint x="131" y="106.5" as="targetPoint" />
          </mxGeometry>
        </mxCell>
        <mxCell id="1429" value="" style="edgeStyle=none;endArrow=none;strokeWidth=3;strokeColor=#F08E81;html=1;" parent="1" source="1352" target="1418" edge="1">
          <mxGeometry x="31" y="106.5" width="100" height="100" as="geometry">
            <mxPoint x="31" y="206.5" as="sourcePoint" />
            <mxPoint x="131" y="106.5" as="targetPoint" />
          </mxGeometry>
        </mxCell>
        <mxCell id="1430" value="" style="edgeStyle=none;endArrow=none;strokeWidth=3;strokeColor=#F08E81;html=1;" parent="1" source="1352" target="1419" edge="1">
          <mxGeometry x="31" y="106.5" width="100" height="100" as="geometry">
            <mxPoint x="31" y="206.5" as="sourcePoint" />
            <mxPoint x="131" y="106.5" as="targetPoint" />
          </mxGeometry>
        </mxCell>
        <mxCell id="1431" value="" style="edgeStyle=none;endArrow=none;strokeWidth=3;strokeColor=#F08E81;html=1;" parent="1" source="1352" target="1412" edge="1">
          <mxGeometry x="31" y="106.5" width="100" height="100" as="geometry">
            <mxPoint x="31" y="206.5" as="sourcePoint" />
            <mxPoint x="131" y="106.5" as="targetPoint" />
          </mxGeometry>
        </mxCell>
        <mxCell id="1432" value="" style="edgeStyle=none;endArrow=none;strokeWidth=3;strokeColor=#F08E81;html=1;" parent="1" source="1352" target="1422" edge="1">
          <mxGeometry x="31" y="106.5" width="100" height="100" as="geometry">
            <mxPoint x="31" y="206.5" as="sourcePoint" />
            <mxPoint x="131" y="106.5" as="targetPoint" />
          </mxGeometry>
        </mxCell>
        <mxCell id="1433" value="" style="edgeStyle=none;endArrow=none;strokeWidth=3;strokeColor=#F08E81;html=1;" parent="1" source="1352" target="1421" edge="1">
          <mxGeometry x="31" y="106.5" width="100" height="100" as="geometry">
            <mxPoint x="31" y="206.5" as="sourcePoint" />
            <mxPoint x="131" y="106.5" as="targetPoint" />
          </mxGeometry>
        </mxCell>
        <mxCell id="1434" value="" style="edgeStyle=none;endArrow=none;strokeWidth=3;strokeColor=#F08E81;html=1;" parent="1" source="1352" target="1420" edge="1">
          <mxGeometry x="31" y="106.5" width="100" height="100" as="geometry">
            <mxPoint x="31" y="206.5" as="sourcePoint" />
            <mxPoint x="131" y="106.5" as="targetPoint" />
          </mxGeometry>
        </mxCell>
        <mxCell id="1435" value="Perch" style="rounded=1;fillColor=#64BBE2;strokeColor=none;strokeWidth=3;shadow=0;html=1;fontColor=#FFFFFF;" parent="1" vertex="1">
          <mxGeometry x="1781" y="766.5" width="120" height="40" as="geometry" />
        </mxCell>
        <mxCell id="1436" value="Mackerel" style="rounded=1;fillColor=#64BBE2;strokeColor=none;strokeWidth=3;shadow=0;html=1;fontColor=#FFFFFF;" parent="1" vertex="1">
          <mxGeometry x="1811" y="696.5" width="120" height="40" as="geometry" />
        </mxCell>
        <mxCell id="1437" value="Tuna" style="rounded=1;fillColor=#64BBE2;strokeColor=none;strokeWidth=3;shadow=0;html=1;fontColor=#FFFFFF;" parent="1" vertex="1">
          <mxGeometry x="1936" y="666.5" width="120" height="40" as="geometry" />
        </mxCell>
        <mxCell id="1438" value="Shark" style="rounded=1;fillColor=#64BBE2;strokeColor=none;strokeWidth=3;shadow=0;html=1;fontColor=#FFFFFF;" parent="1" vertex="1">
          <mxGeometry x="2056" y="616.5" width="120" height="40" as="geometry" />
        </mxCell>
        <mxCell id="1439" value="Whale" style="rounded=1;fillColor=#64BBE2;strokeColor=none;strokeWidth=3;shadow=0;html=1;fontColor=#FFFFFF;" parent="1" vertex="1">
          <mxGeometry x="2101" y="706.5" width="120" height="40" as="geometry" />
        </mxCell>
        <mxCell id="1440" value="Bass" style="rounded=1;fillColor=#64BBE2;strokeColor=none;strokeWidth=3;shadow=0;html=1;fontColor=#FFFFFF;" parent="1" vertex="1">
          <mxGeometry x="2171" y="786.5" width="120" height="40" as="geometry" />
        </mxCell>
        <mxCell id="1441" value="Eel" style="rounded=1;fillColor=#64BBE2;strokeColor=none;strokeWidth=3;shadow=0;html=1;fontColor=#FFFFFF;" parent="1" vertex="1">
          <mxGeometry x="2121" y="966.5" width="120" height="40" as="geometry" />
        </mxCell>
        <mxCell id="1442" value="Oyster" style="rounded=1;fillColor=#64BBE2;strokeColor=none;strokeWidth=3;shadow=0;html=1;fontColor=#FFFFFF;" parent="1" vertex="1">
          <mxGeometry x="2181" y="871.5" width="120" height="40" as="geometry" />
        </mxCell>
        <mxCell id="1443" value="Ray" style="rounded=1;fillColor=#64BBE2;strokeColor=none;strokeWidth=3;shadow=0;html=1;fontColor=#FFFFFF;" parent="1" vertex="1">
          <mxGeometry x="1981" y="1016.5" width="120" height="40" as="geometry" />
        </mxCell>
        <mxCell id="1444" value="Trout" style="rounded=1;fillColor=#64BBE2;strokeColor=none;strokeWidth=3;shadow=0;html=1;fontColor=#FFFFFF;" parent="1" vertex="1">
          <mxGeometry x="1856" y="956.5" width="120" height="40" as="geometry" />
        </mxCell>
        <mxCell id="1445" value="Catfish" style="rounded=1;fillColor=#64BBE2;strokeColor=none;strokeWidth=3;shadow=0;html=1;fontColor=#FFFFFF;" parent="1" vertex="1">
          <mxGeometry x="1756" y="891.5" width="120" height="40" as="geometry" />
        </mxCell>
        <mxCell id="1446" value="" style="edgeStyle=none;endArrow=none;strokeWidth=3;strokeColor=#64BBE2;html=1;" parent="1" source="1353" target="1435" edge="1">
          <mxGeometry x="-24" y="196.5" width="100" height="100" as="geometry">
            <mxPoint x="-24" y="296.5" as="sourcePoint" />
            <mxPoint x="76" y="196.5" as="targetPoint" />
          </mxGeometry>
        </mxCell>
        <mxCell id="1447" value="" style="edgeStyle=none;endArrow=none;strokeWidth=3;strokeColor=#64BBE2;html=1;" parent="1" source="1353" target="1436" edge="1">
          <mxGeometry x="-24" y="196.5" width="100" height="100" as="geometry">
            <mxPoint x="-24" y="296.5" as="sourcePoint" />
            <mxPoint x="76" y="196.5" as="targetPoint" />
          </mxGeometry>
        </mxCell>
        <mxCell id="1448" value="" style="edgeStyle=none;endArrow=none;strokeWidth=3;strokeColor=#64BBE2;html=1;" parent="1" source="1353" target="1437" edge="1">
          <mxGeometry x="-24" y="196.5" width="100" height="100" as="geometry">
            <mxPoint x="-24" y="296.5" as="sourcePoint" />
            <mxPoint x="76" y="196.5" as="targetPoint" />
          </mxGeometry>
        </mxCell>
        <mxCell id="1449" value="" style="edgeStyle=none;endArrow=none;strokeWidth=3;strokeColor=#64BBE2;html=1;" parent="1" source="1353" target="1438" edge="1">
          <mxGeometry x="-24" y="196.5" width="100" height="100" as="geometry">
            <mxPoint x="-24" y="296.5" as="sourcePoint" />
            <mxPoint x="76" y="196.5" as="targetPoint" />
          </mxGeometry>
        </mxCell>
        <mxCell id="1450" value="" style="edgeStyle=none;endArrow=none;strokeWidth=3;strokeColor=#64BBE2;html=1;" parent="1" source="1353" target="1439" edge="1">
          <mxGeometry x="-24" y="196.5" width="100" height="100" as="geometry">
            <mxPoint x="-24" y="296.5" as="sourcePoint" />
            <mxPoint x="76" y="196.5" as="targetPoint" />
          </mxGeometry>
        </mxCell>
        <mxCell id="1451" value="" style="edgeStyle=none;endArrow=none;strokeWidth=3;strokeColor=#64BBE2;html=1;" parent="1" source="1353" target="1440" edge="1">
          <mxGeometry x="-24" y="196.5" width="100" height="100" as="geometry">
            <mxPoint x="-24" y="296.5" as="sourcePoint" />
            <mxPoint x="76" y="196.5" as="targetPoint" />
          </mxGeometry>
        </mxCell>
        <mxCell id="1452" value="" style="edgeStyle=none;endArrow=none;strokeWidth=3;strokeColor=#64BBE2;html=1;" parent="1" source="1353" target="1442" edge="1">
          <mxGeometry x="-24" y="196.5" width="100" height="100" as="geometry">
            <mxPoint x="-24" y="296.5" as="sourcePoint" />
            <mxPoint x="76" y="196.5" as="targetPoint" />
          </mxGeometry>
        </mxCell>
        <mxCell id="1453" value="" style="edgeStyle=none;endArrow=none;strokeWidth=3;strokeColor=#64BBE2;html=1;" parent="1" source="1353" target="1441" edge="1">
          <mxGeometry x="-24" y="196.5" width="100" height="100" as="geometry">
            <mxPoint x="-24" y="296.5" as="sourcePoint" />
            <mxPoint x="76" y="196.5" as="targetPoint" />
          </mxGeometry>
        </mxCell>
        <mxCell id="1454" value="" style="edgeStyle=none;endArrow=none;strokeWidth=3;strokeColor=#64BBE2;html=1;" parent="1" source="1353" target="1443" edge="1">
          <mxGeometry x="-24" y="196.5" width="100" height="100" as="geometry">
            <mxPoint x="-24" y="296.5" as="sourcePoint" />
            <mxPoint x="76" y="196.5" as="targetPoint" />
          </mxGeometry>
        </mxCell>
        <mxCell id="1455" value="" style="edgeStyle=none;endArrow=none;strokeWidth=3;strokeColor=#64BBE2;html=1;" parent="1" source="1353" target="1444" edge="1">
          <mxGeometry x="-24" y="196.5" width="100" height="100" as="geometry">
            <mxPoint x="-24" y="296.5" as="sourcePoint" />
            <mxPoint x="76" y="196.5" as="targetPoint" />
          </mxGeometry>
        </mxCell>
        <mxCell id="1456" value="" style="edgeStyle=none;endArrow=none;strokeWidth=3;strokeColor=#64BBE2;html=1;" parent="1" source="1353" target="1445" edge="1">
          <mxGeometry x="-24" y="196.5" width="100" height="100" as="geometry">
            <mxPoint x="-24" y="296.5" as="sourcePoint" />
            <mxPoint x="76" y="196.5" as="targetPoint" />
          </mxGeometry>
        </mxCell>
        <mxCell id="1457" value="Streptococcus" style="rounded=1;fillColor=#a29dc5;strokeColor=none;strokeWidth=3;shadow=0;html=1;fontColor=#FFFFFF;" parent="1" vertex="1">
          <mxGeometry x="1646" y="1087" width="120" height="40" as="geometry" />
        </mxCell>
        <mxCell id="1458" value="Echericia Colli" style="rounded=1;fillColor=#a29dc5;strokeColor=none;strokeWidth=3;shadow=0;html=1;fontColor=#FFFFFF;" parent="1" vertex="1">
          <mxGeometry x="1631" y="1301.5" width="120" height="40" as="geometry" />
        </mxCell>
        <mxCell id="1459" value="Lactobacyllus" style="rounded=1;fillColor=#a29dc5;strokeColor=none;strokeWidth=3;shadow=0;html=1;fontColor=#FFFFFF;" parent="1" vertex="1">
          <mxGeometry x="1801" y="1114" width="120" height="40" as="geometry" />
        </mxCell>
        <mxCell id="1460" value="Helicobacter" style="rounded=1;fillColor=#a29dc5;strokeColor=none;strokeWidth=3;shadow=0;html=1;fontColor=#FFFFFF;" parent="1" vertex="1">
          <mxGeometry x="1901" y="1194" width="120" height="40" as="geometry" />
        </mxCell>
        <mxCell id="1461" value="Bifidobacterium" style="rounded=1;fillColor=#a29dc5;strokeColor=none;strokeWidth=3;shadow=0;html=1;fontColor=#FFFFFF;" parent="1" vertex="1">
          <mxGeometry x="1821" y="1331.5" width="120" height="40" as="geometry" />
        </mxCell>
        <mxCell id="1462" value="Staphyllococcus" style="rounded=1;fillColor=#a29dc5;strokeColor=none;strokeWidth=3;shadow=0;html=1;fontColor=#FFFFFF;" parent="1" vertex="1">
          <mxGeometry x="1551" y="1211.5" width="120" height="40" as="geometry" />
        </mxCell>
        <mxCell id="1463" value="" style="edgeStyle=none;endArrow=none;strokeWidth=3;strokeColor=#A29DC5;html=1;" parent="1" source="1354" target="1460" edge="1">
          <mxGeometry x="251" y="-103.5" width="100" height="100" as="geometry">
            <mxPoint x="251" y="-3.5" as="sourcePoint" />
            <mxPoint x="351" y="-103.5" as="targetPoint" />
          </mxGeometry>
        </mxCell>
        <mxCell id="1464" value="" style="edgeStyle=none;endArrow=none;strokeWidth=3;strokeColor=#A29DC5;html=1;" parent="1" source="1354" target="1461" edge="1">
          <mxGeometry x="251" y="-103.5" width="100" height="100" as="geometry">
            <mxPoint x="251" y="-3.5" as="sourcePoint" />
            <mxPoint x="351" y="-103.5" as="targetPoint" />
          </mxGeometry>
        </mxCell>
        <mxCell id="1465" value="" style="edgeStyle=none;endArrow=none;strokeWidth=3;strokeColor=#A29DC5;html=1;" parent="1" source="1354" target="1458" edge="1">
          <mxGeometry x="251" y="-103.5" width="100" height="100" as="geometry">
            <mxPoint x="251" y="-3.5" as="sourcePoint" />
            <mxPoint x="351" y="-103.5" as="targetPoint" />
          </mxGeometry>
        </mxCell>
        <mxCell id="1466" value="" style="edgeStyle=none;endArrow=none;strokeWidth=3;strokeColor=#A29DC5;html=1;" parent="1" source="1354" target="1462" edge="1">
          <mxGeometry x="251" y="-103.5" width="100" height="100" as="geometry">
            <mxPoint x="251" y="-3.5" as="sourcePoint" />
            <mxPoint x="351" y="-103.5" as="targetPoint" />
          </mxGeometry>
        </mxCell>
        <mxCell id="1467" value="" style="edgeStyle=none;endArrow=none;strokeWidth=3;strokeColor=#A29DC5;html=1;" parent="1" source="1354" target="1457" edge="1">
          <mxGeometry x="251" y="-103.5" width="100" height="100" as="geometry">
            <mxPoint x="251" y="-3.5" as="sourcePoint" />
            <mxPoint x="351" y="-103.5" as="targetPoint" />
          </mxGeometry>
        </mxCell>
        <mxCell id="1468" value="Zygomycota" style="rounded=1;fillColor=#f5af58;strokeColor=none;strokeWidth=3;shadow=0;html=1;fontColor=#FFFFFF;" parent="1" vertex="1">
          <mxGeometry x="1358.5" y="1274" width="120" height="40" as="geometry" />
        </mxCell>
        <mxCell id="1469" value="Script Writing" style="rounded=1;fillColor=#f5af58;strokeColor=none;strokeWidth=3;shadow=0;html=1;fontColor=#FFFFFF;" parent="1" vertex="1">
          <mxGeometry x="1373.5" y="1346.5" width="120" height="40" as="geometry" />
        </mxCell>
        <mxCell id="1470" value="Ascomycota" style="rounded=1;fillColor=#f5af58;strokeColor=none;strokeWidth=3;shadow=0;html=1;fontColor=#FFFFFF;" parent="1" vertex="1">
          <mxGeometry x="1348.5" y="1411.5" width="120" height="40" as="geometry" />
        </mxCell>
        <mxCell id="1471" value="Basidiomycota" style="rounded=1;fillColor=#f5af58;strokeColor=none;strokeWidth=3;shadow=0;html=1;fontColor=#FFFFFF;" parent="1" vertex="1">
          <mxGeometry x="1283.5" y="1471.5" width="120" height="40" as="geometry" />
        </mxCell>
        <mxCell id="1472" value="Mushroom" style="rounded=1;fillColor=#f5af58;strokeColor=none;strokeWidth=3;shadow=0;html=1;fontColor=#FFFFFF;" parent="1" vertex="1">
          <mxGeometry x="1183.5" y="1529" width="120" height="40" as="geometry" />
        </mxCell>
        <mxCell id="1473" value="Lichen" style="rounded=1;fillColor=#f5af58;strokeColor=none;strokeWidth=3;shadow=0;html=1;fontColor=#FFFFFF;" parent="1" vertex="1">
          <mxGeometry x="1083.5" y="1471.5" width="120" height="40" as="geometry" />
        </mxCell>
        <mxCell id="1474" value="Bread Mold" style="rounded=1;fillColor=#f5af58;strokeColor=none;strokeWidth=3;shadow=0;html=1;fontColor=#FFFFFF;" parent="1" vertex="1">
          <mxGeometry x="1003.5" y="1411.5" width="120" height="40" as="geometry" />
        </mxCell>
        <mxCell id="1475" value="Yeast" style="rounded=1;fillColor=#f5af58;strokeColor=none;strokeWidth=3;shadow=0;html=1;fontColor=#FFFFFF;" parent="1" vertex="1">
          <mxGeometry x="963.5" y="1339" width="120" height="40" as="geometry" />
        </mxCell>
        <mxCell id="1476" value="Zygospore" style="rounded=1;fillColor=#f5af58;strokeColor=none;strokeWidth=3;shadow=0;html=1;fontColor=#FFFFFF;" parent="1" vertex="1">
          <mxGeometry x="968.5" y="1274" width="120" height="40" as="geometry" />
        </mxCell>
        <mxCell id="1477" value="Truffle" style="rounded=1;fillColor=#f5af58;strokeColor=none;strokeWidth=3;shadow=0;html=1;fontColor=#FFFFFF;" parent="1" vertex="1">
          <mxGeometry x="1028.5" y="1209" width="120" height="40" as="geometry" />
        </mxCell>
        <mxCell id="1478" value="Chytrid" style="rounded=1;fillColor=#f5af58;strokeColor=none;strokeWidth=3;shadow=0;html=1;fontColor=#FFFFFF;" parent="1" vertex="1">
          <mxGeometry x="1298.5" y="1194" width="120" height="40" as="geometry" />
        </mxCell>
        <mxCell id="1479" value="" style="edgeStyle=none;endArrow=none;strokeWidth=3;strokeColor=#F5AF58;html=1;" parent="1" source="1355" target="1478" edge="1">
          <mxGeometry x="243.5" y="39" width="100" height="100" as="geometry">
            <mxPoint x="243.5" y="139" as="sourcePoint" />
            <mxPoint x="343.5" y="39" as="targetPoint" />
          </mxGeometry>
        </mxCell>
        <mxCell id="1480" value="" style="edgeStyle=none;endArrow=none;strokeWidth=3;strokeColor=#F5AF58;html=1;" parent="1" source="1355" target="1468" edge="1">
          <mxGeometry x="243.5" y="39" width="100" height="100" as="geometry">
            <mxPoint x="243.5" y="139" as="sourcePoint" />
            <mxPoint x="343.5" y="39" as="targetPoint" />
          </mxGeometry>
        </mxCell>
        <mxCell id="1481" value="" style="edgeStyle=none;endArrow=none;strokeWidth=3;strokeColor=#F5AF58;html=1;" parent="1" source="1355" target="1469" edge="1">
          <mxGeometry x="243.5" y="39" width="100" height="100" as="geometry">
            <mxPoint x="243.5" y="139" as="sourcePoint" />
            <mxPoint x="343.5" y="39" as="targetPoint" />
          </mxGeometry>
        </mxCell>
        <mxCell id="1482" value="" style="edgeStyle=none;endArrow=none;strokeWidth=3;strokeColor=#F5AF58;html=1;" parent="1" source="1355" target="1470" edge="1">
          <mxGeometry x="243.5" y="39" width="100" height="100" as="geometry">
            <mxPoint x="243.5" y="139" as="sourcePoint" />
            <mxPoint x="343.5" y="39" as="targetPoint" />
          </mxGeometry>
        </mxCell>
        <mxCell id="1483" value="" style="edgeStyle=none;endArrow=none;strokeWidth=3;strokeColor=#F5AF58;html=1;" parent="1" source="1355" target="1471" edge="1">
          <mxGeometry x="243.5" y="39" width="100" height="100" as="geometry">
            <mxPoint x="243.5" y="139" as="sourcePoint" />
            <mxPoint x="343.5" y="39" as="targetPoint" />
          </mxGeometry>
        </mxCell>
        <mxCell id="1484" value="" style="edgeStyle=none;endArrow=none;strokeWidth=3;strokeColor=#F5AF58;html=1;" parent="1" source="1355" target="1472" edge="1">
          <mxGeometry x="243.5" y="39" width="100" height="100" as="geometry">
            <mxPoint x="243.5" y="139" as="sourcePoint" />
            <mxPoint x="343.5" y="39" as="targetPoint" />
          </mxGeometry>
        </mxCell>
        <mxCell id="1485" value="" style="edgeStyle=none;endArrow=none;strokeWidth=3;strokeColor=#F5AF58;html=1;" parent="1" source="1355" target="1473" edge="1">
          <mxGeometry x="243.5" y="39" width="100" height="100" as="geometry">
            <mxPoint x="243.5" y="139" as="sourcePoint" />
            <mxPoint x="343.5" y="39" as="targetPoint" />
          </mxGeometry>
        </mxCell>
        <mxCell id="1486" value="" style="edgeStyle=none;endArrow=none;strokeWidth=3;strokeColor=#F5AF58;html=1;" parent="1" source="1355" target="1474" edge="1">
          <mxGeometry x="243.5" y="39" width="100" height="100" as="geometry">
            <mxPoint x="243.5" y="139" as="sourcePoint" />
            <mxPoint x="343.5" y="39" as="targetPoint" />
          </mxGeometry>
        </mxCell>
        <mxCell id="1487" value="" style="edgeStyle=none;endArrow=none;strokeWidth=3;strokeColor=#F5AF58;html=1;" parent="1" source="1355" target="1475" edge="1">
          <mxGeometry x="243.5" y="39" width="100" height="100" as="geometry">
            <mxPoint x="243.5" y="139" as="sourcePoint" />
            <mxPoint x="343.5" y="39" as="targetPoint" />
          </mxGeometry>
        </mxCell>
        <mxCell id="1488" value="" style="edgeStyle=none;endArrow=none;strokeWidth=3;strokeColor=#F5AF58;html=1;" parent="1" source="1355" target="1476" edge="1">
          <mxGeometry x="243.5" y="39" width="100" height="100" as="geometry">
            <mxPoint x="243.5" y="139" as="sourcePoint" />
            <mxPoint x="343.5" y="39" as="targetPoint" />
          </mxGeometry>
        </mxCell>
        <mxCell id="1489" value="" style="edgeStyle=none;endArrow=none;strokeWidth=3;strokeColor=#F5AF58;html=1;" parent="1" source="1355" target="1477" edge="1">
          <mxGeometry x="243.5" y="39" width="100" height="100" as="geometry">
            <mxPoint x="243.5" y="139" as="sourcePoint" />
            <mxPoint x="343.5" y="39" as="targetPoint" />
          </mxGeometry>
        </mxCell>
        <mxCell id="1514" style="edgeStyle=orthogonalEdgeStyle;rounded=0;html=1;exitX=0.75;exitY=0;entryX=0.75;entryY=0;startArrow=none;startFill=0;endArrow=block;endFill=1;jettySize=auto;orthogonalLoop=1;strokeColor=#12aab5;strokeWidth=6;fontSize=20;fontColor=#2F5B7C;" parent="1" source="1414" target="1414" edge="1">
          <mxGeometry relative="1" as="geometry" />
        </mxCell>
        <mxCell id="1516" value="Container" style="ellipse;whiteSpace=wrap;html=1;shadow=0;fontFamily=Helvetica;fontSize=20;fontColor=#FFFFFF;align=center;strokeWidth=3;fillColor=#736ca8;strokeColor=none;" parent="1" vertex="1">
          <mxGeometry x="312" y="721.5" width="120" height="120" as="geometry" />
        </mxCell>
        <mxCell id="1517" value="Organisation" style="rounded=1;fillColor=#a29dc5;strokeColor=none;strokeWidth=3;shadow=0;html=1;fontColor=#FFFFFF;" parent="1" vertex="1">
          <mxGeometry x="202" y="621.5" width="120" height="40" as="geometry" />
        </mxCell>
        <mxCell id="1518" value="Oak" style="rounded=1;fillColor=#a29dc5;strokeColor=none;strokeWidth=3;shadow=0;html=1;fontColor=#FFFFFF;" parent="1" vertex="1">
          <mxGeometry x="309.5" y="561.5" width="120" height="40" as="geometry" />
        </mxCell>
        <mxCell id="1519" value="Birch" style="rounded=1;fillColor=#a29dc5;strokeColor=none;strokeWidth=3;shadow=0;html=1;fontColor=#FFFFFF;" parent="1" vertex="1">
          <mxGeometry x="449.5" y="571.5" width="120" height="40" as="geometry" />
        </mxCell>
        <mxCell id="1520" value="Silverfern" style="rounded=1;fillColor=#a29dc5;strokeColor=none;strokeWidth=3;shadow=0;html=1;fontColor=#FFFFFF;" parent="1" vertex="1">
          <mxGeometry x="514.5" y="641.5" width="120" height="40" as="geometry" />
        </mxCell>
        <mxCell id="1521" value="Personal &#xa;Development" style="rounded=1;fillColor=#a29dc5;strokeColor=none;strokeWidth=3;shadow=0;html=1;fontColor=#FFFFFF;" parent="1" vertex="1">
          <mxGeometry x="539.5" y="721.5" width="120" height="40" as="geometry" />
        </mxCell>
        <mxCell id="1522" value="Pine" style="rounded=1;fillColor=#a29dc5;strokeColor=none;strokeWidth=3;shadow=0;html=1;fontColor=#FFFFFF;" parent="1" vertex="1">
          <mxGeometry x="67" y="641.5" width="120" height="40" as="geometry" />
        </mxCell>
        <mxCell id="1523" value="Lime" style="rounded=1;fillColor=#a29dc5;strokeColor=none;strokeWidth=3;shadow=0;html=1;fontColor=#FFFFFF;" parent="1" vertex="1">
          <mxGeometry x="472" y="831.5" width="120" height="40" as="geometry" />
        </mxCell>
        <mxCell id="1524" value="Chestnut" style="rounded=1;fillColor=#a29dc5;strokeColor=none;strokeWidth=3;shadow=0;html=1;fontColor=#FFFFFF;" parent="1" vertex="1">
          <mxGeometry x="422" y="891.5" width="120" height="40" as="geometry" />
        </mxCell>
        <mxCell id="1525" value="Beech" style="rounded=1;fillColor=#a29dc5;strokeColor=none;strokeWidth=3;shadow=0;html=1;fontColor=#FFFFFF;" parent="1" vertex="1">
          <mxGeometry x="282" y="891.5" width="120" height="40" as="geometry" />
        </mxCell>
        <mxCell id="1526" value="Poplar" style="rounded=1;fillColor=#a29dc5;strokeColor=none;strokeWidth=3;shadow=0;html=1;fontColor=#FFFFFF;" parent="1" vertex="1">
          <mxGeometry x="142" y="856.5" width="120" height="40" as="geometry" />
        </mxCell>
        <mxCell id="1527" value="Willow" style="rounded=1;fillColor=#a29dc5;strokeColor=none;strokeWidth=3;shadow=0;html=1;fontColor=#FFFFFF;" parent="1" vertex="1">
          <mxGeometry x="37" y="801.5" width="120" height="40" as="geometry" />
        </mxCell>
        <mxCell id="1528" value="" style="edgeStyle=none;endArrow=none;strokeWidth=3;strokeColor=#A29DC5;html=1;" parent="1" source="1516" target="1517" edge="1">
          <mxGeometry x="-1498" y="-303.5" width="100" height="100" as="geometry">
            <mxPoint x="-1498" y="-203.5" as="sourcePoint" />
            <mxPoint x="-1398" y="-303.5" as="targetPoint" />
          </mxGeometry>
        </mxCell>
        <mxCell id="1529" value="Acacia" style="rounded=1;fillColor=#a29dc5;strokeColor=none;strokeWidth=3;shadow=0;html=1;fontColor=#FFFFFF;" parent="1" vertex="1">
          <mxGeometry x="77" y="731.5" width="120" height="40" as="geometry" />
        </mxCell>
        <mxCell id="1530" value="" style="edgeStyle=none;endArrow=none;strokeWidth=3;strokeColor=#A29DC5;html=1;" parent="1" source="1516" target="1518" edge="1">
          <mxGeometry x="-1498" y="-303.5" width="100" height="100" as="geometry">
            <mxPoint x="-1498" y="-203.5" as="sourcePoint" />
            <mxPoint x="-1398" y="-303.5" as="targetPoint" />
          </mxGeometry>
        </mxCell>
        <mxCell id="1531" value="" style="edgeStyle=none;endArrow=none;strokeWidth=3;strokeColor=#A29DC5;html=1;" parent="1" source="1516" target="1519" edge="1">
          <mxGeometry x="-1498" y="-303.5" width="100" height="100" as="geometry">
            <mxPoint x="-1498" y="-203.5" as="sourcePoint" />
            <mxPoint x="-1398" y="-303.5" as="targetPoint" />
          </mxGeometry>
        </mxCell>
        <mxCell id="1532" value="" style="edgeStyle=none;endArrow=none;strokeWidth=3;strokeColor=#A29DC5;html=1;" parent="1" source="1516" target="1520" edge="1">
          <mxGeometry x="-1498" y="-303.5" width="100" height="100" as="geometry">
            <mxPoint x="-1498" y="-203.5" as="sourcePoint" />
            <mxPoint x="-1398" y="-303.5" as="targetPoint" />
          </mxGeometry>
        </mxCell>
        <mxCell id="1533" value="" style="edgeStyle=none;endArrow=none;strokeWidth=3;strokeColor=#A29DC5;html=1;" parent="1" source="1516" target="1521" edge="1">
          <mxGeometry x="-1498" y="-303.5" width="100" height="100" as="geometry">
            <mxPoint x="-1498" y="-203.5" as="sourcePoint" />
            <mxPoint x="-1398" y="-303.5" as="targetPoint" />
          </mxGeometry>
        </mxCell>
        <mxCell id="1534" value="" style="edgeStyle=none;endArrow=none;strokeWidth=3;strokeColor=#A29DC5;html=1;" parent="1" source="1516" target="1522" edge="1">
          <mxGeometry x="-1498" y="-303.5" width="100" height="100" as="geometry">
            <mxPoint x="-1498" y="-203.5" as="sourcePoint" />
            <mxPoint x="-1398" y="-303.5" as="targetPoint" />
          </mxGeometry>
        </mxCell>
        <mxCell id="1535" value="" style="edgeStyle=none;endArrow=none;strokeWidth=3;strokeColor=#A29DC5;html=1;" parent="1" source="1516" target="1523" edge="1">
          <mxGeometry x="-1498" y="-303.5" width="100" height="100" as="geometry">
            <mxPoint x="-1498" y="-203.5" as="sourcePoint" />
            <mxPoint x="-1398" y="-303.5" as="targetPoint" />
          </mxGeometry>
        </mxCell>
        <mxCell id="1536" value="" style="edgeStyle=none;endArrow=none;strokeWidth=3;strokeColor=#A29DC5;html=1;" parent="1" source="1516" target="1524" edge="1">
          <mxGeometry x="-1498" y="-303.5" width="100" height="100" as="geometry">
            <mxPoint x="-1498" y="-203.5" as="sourcePoint" />
            <mxPoint x="-1398" y="-303.5" as="targetPoint" />
          </mxGeometry>
        </mxCell>
        <mxCell id="1537" value="" style="edgeStyle=none;endArrow=none;strokeWidth=3;strokeColor=#A29DC5;html=1;" parent="1" source="1516" target="1525" edge="1">
          <mxGeometry x="-1498" y="-303.5" width="100" height="100" as="geometry">
            <mxPoint x="-1498" y="-203.5" as="sourcePoint" />
            <mxPoint x="-1398" y="-303.5" as="targetPoint" />
          </mxGeometry>
        </mxCell>
        <mxCell id="1538" value="" style="edgeStyle=none;endArrow=none;strokeWidth=3;strokeColor=#A29DC5;html=1;" parent="1" source="1516" target="1526" edge="1">
          <mxGeometry x="-1498" y="-303.5" width="100" height="100" as="geometry">
            <mxPoint x="-1498" y="-203.5" as="sourcePoint" />
            <mxPoint x="-1398" y="-303.5" as="targetPoint" />
          </mxGeometry>
        </mxCell>
        <mxCell id="1539" value="" style="edgeStyle=none;endArrow=none;strokeWidth=3;strokeColor=#A29DC5;html=1;" parent="1" source="1516" target="1527" edge="1">
          <mxGeometry x="-1498" y="-303.5" width="100" height="100" as="geometry">
            <mxPoint x="-1498" y="-203.5" as="sourcePoint" />
            <mxPoint x="-1398" y="-303.5" as="targetPoint" />
          </mxGeometry>
        </mxCell>
        <mxCell id="1540" value="" style="edgeStyle=none;endArrow=none;strokeWidth=3;strokeColor=#A29DC5;html=1;" parent="1" source="1516" target="1529" edge="1">
          <mxGeometry x="-1498" y="-303.5" width="100" height="100" as="geometry">
            <mxPoint x="-1498" y="-203.5" as="sourcePoint" />
            <mxPoint x="-1398" y="-303.5" as="targetPoint" />
          </mxGeometry>
        </mxCell>
        <mxCell id="1541" value="" style="edgeStyle=none;endArrow=none;strokeWidth=3;strokeColor=#A29DC5;html=1;" parent="1" source="1354" target="1459" edge="1">
          <mxGeometry x="-1174" y="-408.5" width="100" height="100" as="geometry">
            <mxPoint x="-1174" y="-308.5" as="sourcePoint" />
            <mxPoint x="-1074" y="-408.5" as="targetPoint" />
          </mxGeometry>
        </mxCell>
        <mxCell id="1542" style="edgeStyle=none;rounded=0;html=1;exitX=0.5;exitY=1;endArrow=none;endFill=0;jettySize=auto;orthogonalLoop=1;strokeColor=#736CA8;strokeWidth=2;fillColor=#64bbe2;fontSize=20;fontColor=#23445D;" parent="1" source="1529" target="1529" edge="1">
          <mxGeometry relative="1" as="geometry" />
        </mxCell>
        <mxCell id="EwDdD5B7TcxTZYaxsXtc-1542" value="" style="group" vertex="1" connectable="0" parent="1">
          <mxGeometry x="79.5" y="1142.75" width="555" height="447.5" as="geometry" />
        </mxCell>
        <mxCell id="1356" value="Orechstration" style="ellipse;whiteSpace=wrap;html=1;shadow=0;fontFamily=Helvetica;fontSize=20;fontColor=#FFFFFF;align=center;strokeWidth=3;fillColor=#E85642;strokeColor=none;" parent="EwDdD5B7TcxTZYaxsXtc-1542" vertex="1">
          <mxGeometry x="210" y="233.5" width="120" height="51.5" as="geometry" />
        </mxCell>
        <mxCell id="1490" value="Philadendron" style="rounded=1;fillColor=#f08e81;strokeColor=none;strokeWidth=3;shadow=0;html=1;fontColor=#FFFFFF;" parent="EwDdD5B7TcxTZYaxsXtc-1542" vertex="1">
          <mxGeometry x="275" width="120" height="40" as="geometry" />
        </mxCell>
        <mxCell id="1491" value="Dahlia" style="rounded=1;fillColor=#f08e81;strokeColor=none;strokeWidth=3;shadow=0;html=1;fontColor=#FFFFFF;" parent="EwDdD5B7TcxTZYaxsXtc-1542" vertex="1">
          <mxGeometry x="140" y="5" width="120" height="40" as="geometry" />
        </mxCell>
        <mxCell id="1492" value="Petunia" style="rounded=1;fillColor=#f08e81;strokeColor=none;strokeWidth=3;shadow=0;html=1;fontColor=#FFFFFF;" parent="EwDdD5B7TcxTZYaxsXtc-1542" vertex="1">
          <mxGeometry x="75" y="60" width="120" height="40" as="geometry" />
        </mxCell>
        <mxCell id="1493" value="Cactus" style="rounded=1;fillColor=#f08e81;strokeColor=none;strokeWidth=3;shadow=0;html=1;fontColor=#FFFFFF;" parent="EwDdD5B7TcxTZYaxsXtc-1542" vertex="1">
          <mxGeometry x="20" y="120" width="120" height="40" as="geometry" />
        </mxCell>
        <mxCell id="1494" value="Tulip" style="rounded=1;fillColor=#f08e81;strokeColor=none;strokeWidth=3;shadow=0;html=1;fontColor=#FFFFFF;" parent="EwDdD5B7TcxTZYaxsXtc-1542" vertex="1">
          <mxGeometry y="175" width="120" height="40" as="geometry" />
        </mxCell>
        <mxCell id="1495" value="Lilac" style="rounded=1;fillColor=#f08e81;strokeColor=none;strokeWidth=3;shadow=0;html=1;fontColor=#FFFFFF;" parent="EwDdD5B7TcxTZYaxsXtc-1542" vertex="1">
          <mxGeometry x="15" y="240" width="120" height="40" as="geometry" />
        </mxCell>
        <mxCell id="1496" value="Dandelion" style="rounded=1;fillColor=#f08e81;strokeColor=none;strokeWidth=3;shadow=0;html=1;fontColor=#FFFFFF;" parent="EwDdD5B7TcxTZYaxsXtc-1542" vertex="1">
          <mxGeometry x="50" y="302.5" width="120" height="40" as="geometry" />
        </mxCell>
        <mxCell id="1497" value="Poppy" style="rounded=1;fillColor=#f08e81;strokeColor=none;strokeWidth=3;shadow=0;html=1;fontColor=#FFFFFF;" parent="EwDdD5B7TcxTZYaxsXtc-1542" vertex="1">
          <mxGeometry x="120" y="352.5" width="120" height="40" as="geometry" />
        </mxCell>
        <mxCell id="1498" value="Gerbera" style="rounded=1;fillColor=#f08e81;strokeColor=none;strokeWidth=3;shadow=0;html=1;fontColor=#FFFFFF;" parent="EwDdD5B7TcxTZYaxsXtc-1542" vertex="1">
          <mxGeometry x="230" y="407.5" width="120" height="40" as="geometry" />
        </mxCell>
        <mxCell id="1499" value="Orchid" style="rounded=1;fillColor=#f08e81;strokeColor=none;strokeWidth=3;shadow=0;html=1;fontColor=#FFFFFF;" parent="EwDdD5B7TcxTZYaxsXtc-1542" vertex="1">
          <mxGeometry x="355" y="342.5" width="120" height="40" as="geometry" />
        </mxCell>
        <mxCell id="1500" value="Gladiola" style="rounded=1;fillColor=#f08e81;strokeColor=none;strokeWidth=3;shadow=0;html=1;fontColor=#FFFFFF;" parent="EwDdD5B7TcxTZYaxsXtc-1542" vertex="1">
          <mxGeometry x="415" y="275" width="120" height="40" as="geometry" />
        </mxCell>
        <mxCell id="1501" value="Rose" style="rounded=1;fillColor=#f08e81;strokeColor=none;strokeWidth=3;shadow=0;html=1;fontColor=#FFFFFF;" parent="EwDdD5B7TcxTZYaxsXtc-1542" vertex="1">
          <mxGeometry x="435" y="179.5" width="120" height="40" as="geometry" />
        </mxCell>
        <mxCell id="1502" value="" style="edgeStyle=none;endArrow=none;strokeWidth=3;strokeColor=#F08E81;html=1;" parent="EwDdD5B7TcxTZYaxsXtc-1542" source="1356" target="1501" edge="1">
          <mxGeometry x="-160" y="-955" width="100" height="100" as="geometry">
            <mxPoint x="-160" y="-855" as="sourcePoint" />
            <mxPoint x="-60" y="-955" as="targetPoint" />
          </mxGeometry>
        </mxCell>
        <mxCell id="1503" value="" style="edgeStyle=none;endArrow=none;strokeWidth=3;strokeColor=#F08E81;html=1;" parent="EwDdD5B7TcxTZYaxsXtc-1542" source="1356" target="1490" edge="1">
          <mxGeometry x="-160" y="-955" width="100" height="100" as="geometry">
            <mxPoint x="-160" y="-855" as="sourcePoint" />
            <mxPoint x="-60" y="-955" as="targetPoint" />
          </mxGeometry>
        </mxCell>
        <mxCell id="1504" value="" style="edgeStyle=none;endArrow=none;strokeWidth=3;strokeColor=#F08E81;html=1;" parent="EwDdD5B7TcxTZYaxsXtc-1542" source="1356" target="1491" edge="1">
          <mxGeometry x="-160" y="-955" width="100" height="100" as="geometry">
            <mxPoint x="-160" y="-855" as="sourcePoint" />
            <mxPoint x="-60" y="-955" as="targetPoint" />
          </mxGeometry>
        </mxCell>
        <mxCell id="1505" value="" style="edgeStyle=none;endArrow=none;strokeWidth=3;strokeColor=#F08E81;html=1;" parent="EwDdD5B7TcxTZYaxsXtc-1542" source="1356" target="1492" edge="1">
          <mxGeometry x="-160" y="-955" width="100" height="100" as="geometry">
            <mxPoint x="-160" y="-855" as="sourcePoint" />
            <mxPoint x="-60" y="-955" as="targetPoint" />
          </mxGeometry>
        </mxCell>
        <mxCell id="1506" value="" style="edgeStyle=none;endArrow=none;strokeWidth=3;strokeColor=#F08E81;html=1;" parent="EwDdD5B7TcxTZYaxsXtc-1542" source="1356" target="1493" edge="1">
          <mxGeometry x="-160" y="-955" width="100" height="100" as="geometry">
            <mxPoint x="-160" y="-855" as="sourcePoint" />
            <mxPoint x="-60" y="-955" as="targetPoint" />
          </mxGeometry>
        </mxCell>
        <mxCell id="1507" value="" style="edgeStyle=none;endArrow=none;strokeWidth=3;strokeColor=#F08E81;html=1;" parent="EwDdD5B7TcxTZYaxsXtc-1542" source="1356" target="1494" edge="1">
          <mxGeometry x="-160" y="-955" width="100" height="100" as="geometry">
            <mxPoint x="-160" y="-855" as="sourcePoint" />
            <mxPoint x="-60" y="-955" as="targetPoint" />
          </mxGeometry>
        </mxCell>
        <mxCell id="1508" value="" style="edgeStyle=none;endArrow=none;strokeWidth=3;strokeColor=#F08E81;html=1;" parent="EwDdD5B7TcxTZYaxsXtc-1542" source="1356" target="1495" edge="1">
          <mxGeometry x="-160" y="-955" width="100" height="100" as="geometry">
            <mxPoint x="-160" y="-855" as="sourcePoint" />
            <mxPoint x="-60" y="-955" as="targetPoint" />
          </mxGeometry>
        </mxCell>
        <mxCell id="1509" value="" style="edgeStyle=none;endArrow=none;strokeWidth=3;strokeColor=#F08E81;html=1;" parent="EwDdD5B7TcxTZYaxsXtc-1542" source="1356" target="1496" edge="1">
          <mxGeometry x="-160" y="-955" width="100" height="100" as="geometry">
            <mxPoint x="-160" y="-855" as="sourcePoint" />
            <mxPoint x="-60" y="-955" as="targetPoint" />
          </mxGeometry>
        </mxCell>
        <mxCell id="1510" value="" style="edgeStyle=none;endArrow=none;strokeWidth=3;strokeColor=#F08E81;html=1;" parent="EwDdD5B7TcxTZYaxsXtc-1542" source="1356" target="1497" edge="1">
          <mxGeometry x="-160" y="-955" width="100" height="100" as="geometry">
            <mxPoint x="-160" y="-855" as="sourcePoint" />
            <mxPoint x="-60" y="-955" as="targetPoint" />
          </mxGeometry>
        </mxCell>
        <mxCell id="1511" value="" style="edgeStyle=none;endArrow=none;strokeWidth=3;strokeColor=#F08E81;html=1;" parent="EwDdD5B7TcxTZYaxsXtc-1542" source="1356" target="1498" edge="1">
          <mxGeometry x="-160" y="-955" width="100" height="100" as="geometry">
            <mxPoint x="-160" y="-855" as="sourcePoint" />
            <mxPoint x="-60" y="-955" as="targetPoint" />
          </mxGeometry>
        </mxCell>
        <mxCell id="1512" value="" style="edgeStyle=none;endArrow=none;strokeWidth=3;strokeColor=#F08E81;html=1;" parent="EwDdD5B7TcxTZYaxsXtc-1542" source="1356" target="1499" edge="1">
          <mxGeometry x="-160" y="-955" width="100" height="100" as="geometry">
            <mxPoint x="-160" y="-855" as="sourcePoint" />
            <mxPoint x="-60" y="-955" as="targetPoint" />
          </mxGeometry>
        </mxCell>
        <mxCell id="1513" value="" style="edgeStyle=none;endArrow=none;strokeWidth=3;strokeColor=#F08E81;html=1;" parent="EwDdD5B7TcxTZYaxsXtc-1542" source="1356" target="1500" edge="1">
          <mxGeometry x="-160" y="-955" width="100" height="100" as="geometry">
            <mxPoint x="-160" y="-855" as="sourcePoint" />
            <mxPoint x="-60" y="-955" as="targetPoint" />
          </mxGeometry>
        </mxCell>
        <mxCell id="EwDdD5B7TcxTZYaxsXtc-1543" value="" style="group" vertex="1" connectable="0" parent="1">
          <mxGeometry x="80" y="-80" width="600" height="325" as="geometry" />
        </mxCell>
        <mxCell id="1350" value="OS" style="ellipse;whiteSpace=wrap;html=1;shadow=0;fontFamily=Helvetica;fontSize=20;fontColor=#FFFFFF;align=center;strokeWidth=3;fillColor=#1699D3;strokeColor=none;" parent="EwDdD5B7TcxTZYaxsXtc-1543" vertex="1">
          <mxGeometry y="205" width="120" height="120" as="geometry" />
        </mxCell>
        <mxCell id="1371" value="Dog" style="rounded=1;fillColor=#64BBE2;strokeColor=none;strokeWidth=3;shadow=0;html=1;fontColor=#FFFFFF;" parent="EwDdD5B7TcxTZYaxsXtc-1543" vertex="1">
          <mxGeometry x="165" y="60" width="130" height="40" as="geometry" />
        </mxCell>
        <mxCell id="1372" value="Donkey" style="rounded=1;fillColor=#64BBE2;strokeColor=none;strokeWidth=3;shadow=0;html=1;fontColor=#FFFFFF;" parent="EwDdD5B7TcxTZYaxsXtc-1543" vertex="1">
          <mxGeometry x="245" width="130" height="40" as="geometry" />
        </mxCell>
        <mxCell id="1373" value="Leopard" style="rounded=1;fillColor=#64BBE2;strokeColor=none;strokeWidth=3;shadow=0;html=1;fontColor=#FFFFFF;" parent="EwDdD5B7TcxTZYaxsXtc-1543" vertex="1">
          <mxGeometry x="365" y="60" width="130" height="40" as="geometry" />
        </mxCell>
        <mxCell id="1383" value="" style="edgeStyle=none;endArrow=none;strokeWidth=3;strokeColor=#64BBE2;html=1;" parent="EwDdD5B7TcxTZYaxsXtc-1543" source="1350" target="1371" edge="1">
          <mxGeometry x="-465" y="-30" width="100" height="100" as="geometry">
            <mxPoint x="-465" y="70" as="sourcePoint" />
            <mxPoint x="-365" y="-30" as="targetPoint" />
          </mxGeometry>
        </mxCell>
        <mxCell id="1384" value="" style="edgeStyle=none;endArrow=none;strokeWidth=3;strokeColor=#64BBE2;html=1;" parent="EwDdD5B7TcxTZYaxsXtc-1543" source="1350" target="1372" edge="1">
          <mxGeometry x="-465" y="-30" width="100" height="100" as="geometry">
            <mxPoint x="-465" y="70" as="sourcePoint" />
            <mxPoint x="-365" y="-30" as="targetPoint" />
          </mxGeometry>
        </mxCell>
        <mxCell id="1385" value="" style="edgeStyle=none;endArrow=none;strokeWidth=3;strokeColor=#64BBE2;html=1;" parent="EwDdD5B7TcxTZYaxsXtc-1543" source="1350" target="1373" edge="1">
          <mxGeometry x="-465" y="-30" width="100" height="100" as="geometry">
            <mxPoint x="-465" y="70" as="sourcePoint" />
            <mxPoint x="-365" y="-30" as="targetPoint" />
          </mxGeometry>
        </mxCell>
        <mxCell id="1374" value="Horse" style="rounded=1;fillColor=#64BBE2;strokeColor=none;strokeWidth=3;shadow=0;html=1;fontColor=#FFFFFF;" parent="1" vertex="1">
          <mxGeometry x="60" y="-190" width="130" height="40" as="geometry" />
        </mxCell>
        <mxCell id="1375" value="Zebra" style="rounded=1;fillColor=#64BBE2;strokeColor=none;strokeWidth=3;shadow=0;html=1;fontColor=#FFFFFF;" parent="1" vertex="1">
          <mxGeometry x="95" y="-130" width="130" height="40" as="geometry" />
        </mxCell>
        <mxCell id="1376" value="Gazelle" style="rounded=1;fillColor=#64BBE2;strokeColor=none;strokeWidth=3;shadow=0;html=1;fontColor=#FFFFFF;" parent="1" vertex="1">
          <mxGeometry x="110" y="-50" width="130" height="40" as="geometry" />
        </mxCell>
        <mxCell id="1386" value="" style="edgeStyle=none;endArrow=none;strokeWidth=3;strokeColor=#64BBE2;html=1;" parent="1" source="1350" target="1374" edge="1">
          <mxGeometry x="-385" y="-110" width="100" height="100" as="geometry">
            <mxPoint x="-385" y="-10" as="sourcePoint" />
            <mxPoint x="-285" y="-110" as="targetPoint" />
          </mxGeometry>
        </mxCell>
        <mxCell id="1387" value="" style="edgeStyle=none;endArrow=none;strokeWidth=3;strokeColor=#64BBE2;html=1;" parent="1" source="1350" target="1375" edge="1">
          <mxGeometry x="-385" y="-110" width="100" height="100" as="geometry">
            <mxPoint x="-385" y="-10" as="sourcePoint" />
            <mxPoint x="-285" y="-110" as="targetPoint" />
          </mxGeometry>
        </mxCell>
        <mxCell id="1377" value="" style="edgeStyle=none;endArrow=none;strokeWidth=3;strokeColor=#64BBE2;html=1;" parent="1" source="1350" target="1376" edge="1">
          <mxGeometry x="-385" y="-110" width="100" height="100" as="geometry">
            <mxPoint x="-385" y="-10" as="sourcePoint" />
            <mxPoint x="-285" y="-110" as="targetPoint" />
          </mxGeometry>
        </mxCell>
        <mxCell id="EwDdD5B7TcxTZYaxsXtc-1545" value="" style="group" vertex="1" connectable="0" parent="1">
          <mxGeometry x="1821" y="-870" width="600" height="325" as="geometry" />
        </mxCell>
        <mxCell id="EwDdD5B7TcxTZYaxsXtc-1546" value="Service Mesh" style="ellipse;whiteSpace=wrap;html=1;shadow=0;fontFamily=Helvetica;fontSize=20;fontColor=#FFFFFF;align=center;strokeWidth=3;fillColor=#1699D3;strokeColor=none;" vertex="1" parent="EwDdD5B7TcxTZYaxsXtc-1545">
          <mxGeometry y="205" width="120" height="120" as="geometry" />
        </mxCell>
        <mxCell id="EwDdD5B7TcxTZYaxsXtc-1547" value="Dog" style="rounded=1;fillColor=#64BBE2;strokeColor=none;strokeWidth=3;shadow=0;html=1;fontColor=#FFFFFF;" vertex="1" parent="EwDdD5B7TcxTZYaxsXtc-1545">
          <mxGeometry x="165" y="60" width="130" height="40" as="geometry" />
        </mxCell>
        <mxCell id="EwDdD5B7TcxTZYaxsXtc-1548" value="Donkey" style="rounded=1;fillColor=#64BBE2;strokeColor=none;strokeWidth=3;shadow=0;html=1;fontColor=#FFFFFF;" vertex="1" parent="EwDdD5B7TcxTZYaxsXtc-1545">
          <mxGeometry x="245" width="130" height="40" as="geometry" />
        </mxCell>
        <mxCell id="EwDdD5B7TcxTZYaxsXtc-1549" value="Leopard" style="rounded=1;fillColor=#64BBE2;strokeColor=none;strokeWidth=3;shadow=0;html=1;fontColor=#FFFFFF;" vertex="1" parent="EwDdD5B7TcxTZYaxsXtc-1545">
          <mxGeometry x="365" y="60" width="130" height="40" as="geometry" />
        </mxCell>
        <mxCell id="EwDdD5B7TcxTZYaxsXtc-1550" value="" style="edgeStyle=none;endArrow=none;strokeWidth=3;strokeColor=#64BBE2;html=1;" edge="1" parent="EwDdD5B7TcxTZYaxsXtc-1545" source="EwDdD5B7TcxTZYaxsXtc-1546" target="EwDdD5B7TcxTZYaxsXtc-1547">
          <mxGeometry x="-465" y="-30" width="100" height="100" as="geometry">
            <mxPoint x="-465" y="70" as="sourcePoint" />
            <mxPoint x="-365" y="-30" as="targetPoint" />
          </mxGeometry>
        </mxCell>
        <mxCell id="EwDdD5B7TcxTZYaxsXtc-1551" value="" style="edgeStyle=none;endArrow=none;strokeWidth=3;strokeColor=#64BBE2;html=1;" edge="1" parent="EwDdD5B7TcxTZYaxsXtc-1545" source="EwDdD5B7TcxTZYaxsXtc-1546" target="EwDdD5B7TcxTZYaxsXtc-1548">
          <mxGeometry x="-465" y="-30" width="100" height="100" as="geometry">
            <mxPoint x="-465" y="70" as="sourcePoint" />
            <mxPoint x="-365" y="-30" as="targetPoint" />
          </mxGeometry>
        </mxCell>
        <mxCell id="EwDdD5B7TcxTZYaxsXtc-1552" value="" style="edgeStyle=none;endArrow=none;strokeWidth=3;strokeColor=#64BBE2;html=1;" edge="1" parent="EwDdD5B7TcxTZYaxsXtc-1545" source="EwDdD5B7TcxTZYaxsXtc-1546" target="EwDdD5B7TcxTZYaxsXtc-1549">
          <mxGeometry x="-465" y="-30" width="100" height="100" as="geometry">
            <mxPoint x="-465" y="70" as="sourcePoint" />
            <mxPoint x="-365" y="-30" as="targetPoint" />
          </mxGeometry>
        </mxCell>
        <mxCell id="EwDdD5B7TcxTZYaxsXtc-1553" value="Horse" style="rounded=1;fillColor=#64BBE2;strokeColor=none;strokeWidth=3;shadow=0;html=1;fontColor=#FFFFFF;" vertex="1" parent="1">
          <mxGeometry x="921" y="-910" width="130" height="40" as="geometry" />
        </mxCell>
        <mxCell id="EwDdD5B7TcxTZYaxsXtc-1554" value="Zebra" style="rounded=1;fillColor=#64BBE2;strokeColor=none;strokeWidth=3;shadow=0;html=1;fontColor=#FFFFFF;" vertex="1" parent="1">
          <mxGeometry x="956" y="-850" width="130" height="40" as="geometry" />
        </mxCell>
        <mxCell id="EwDdD5B7TcxTZYaxsXtc-1555" value="Gazelle" style="rounded=1;fillColor=#64BBE2;strokeColor=none;strokeWidth=3;shadow=0;html=1;fontColor=#FFFFFF;" vertex="1" parent="1">
          <mxGeometry x="971" y="-770" width="130" height="40" as="geometry" />
        </mxCell>
        <mxCell id="EwDdD5B7TcxTZYaxsXtc-1556" value="" style="edgeStyle=none;endArrow=none;strokeWidth=3;strokeColor=#64BBE2;html=1;" edge="1" parent="1" source="EwDdD5B7TcxTZYaxsXtc-1546" target="EwDdD5B7TcxTZYaxsXtc-1553">
          <mxGeometry x="476" y="-830" width="100" height="100" as="geometry">
            <mxPoint x="476" y="-730" as="sourcePoint" />
            <mxPoint x="576" y="-830" as="targetPoint" />
          </mxGeometry>
        </mxCell>
        <mxCell id="EwDdD5B7TcxTZYaxsXtc-1557" value="" style="edgeStyle=none;endArrow=none;strokeWidth=3;strokeColor=#64BBE2;html=1;" edge="1" parent="1" source="EwDdD5B7TcxTZYaxsXtc-1546" target="EwDdD5B7TcxTZYaxsXtc-1554">
          <mxGeometry x="476" y="-830" width="100" height="100" as="geometry">
            <mxPoint x="476" y="-730" as="sourcePoint" />
            <mxPoint x="576" y="-830" as="targetPoint" />
          </mxGeometry>
        </mxCell>
        <mxCell id="EwDdD5B7TcxTZYaxsXtc-1558" value="" style="edgeStyle=none;endArrow=none;strokeWidth=3;strokeColor=#64BBE2;html=1;" edge="1" parent="1" source="EwDdD5B7TcxTZYaxsXtc-1546" target="EwDdD5B7TcxTZYaxsXtc-1555">
          <mxGeometry x="476" y="-830" width="100" height="100" as="geometry">
            <mxPoint x="476" y="-730" as="sourcePoint" />
            <mxPoint x="576" y="-830" as="targetPoint" />
          </mxGeometry>
        </mxCell>
        <mxCell id="EwDdD5B7TcxTZYaxsXtc-1559" value="Ingress" style="ellipse;whiteSpace=wrap;html=1;shadow=0;fontFamily=Helvetica;fontSize=20;fontColor=#FFFFFF;align=center;strokeWidth=3;fillColor=#736ca8;strokeColor=none;" vertex="1" parent="1">
          <mxGeometry x="1936" y="-1380" width="120" height="120" as="geometry" />
        </mxCell>
        <mxCell id="EwDdD5B7TcxTZYaxsXtc-1560" value="Organisation" style="rounded=1;fillColor=#a29dc5;strokeColor=none;strokeWidth=3;shadow=0;html=1;fontColor=#FFFFFF;" vertex="1" parent="1">
          <mxGeometry x="1203.5" y="-1380" width="120" height="40" as="geometry" />
        </mxCell>
        <mxCell id="EwDdD5B7TcxTZYaxsXtc-1561" value="Oak" style="rounded=1;fillColor=#a29dc5;strokeColor=none;strokeWidth=3;shadow=0;html=1;fontColor=#FFFFFF;" vertex="1" parent="1">
          <mxGeometry x="1311" y="-1440" width="120" height="40" as="geometry" />
        </mxCell>
        <mxCell id="EwDdD5B7TcxTZYaxsXtc-1562" value="Birch" style="rounded=1;fillColor=#a29dc5;strokeColor=none;strokeWidth=3;shadow=0;html=1;fontColor=#FFFFFF;" vertex="1" parent="1">
          <mxGeometry x="1451" y="-1430" width="120" height="40" as="geometry" />
        </mxCell>
        <mxCell id="EwDdD5B7TcxTZYaxsXtc-1563" value="Silverfern" style="rounded=1;fillColor=#a29dc5;strokeColor=none;strokeWidth=3;shadow=0;html=1;fontColor=#FFFFFF;" vertex="1" parent="1">
          <mxGeometry x="1516" y="-1360" width="120" height="40" as="geometry" />
        </mxCell>
        <mxCell id="EwDdD5B7TcxTZYaxsXtc-1564" value="Personal &#xa;Development" style="rounded=1;fillColor=#a29dc5;strokeColor=none;strokeWidth=3;shadow=0;html=1;fontColor=#FFFFFF;" vertex="1" parent="1">
          <mxGeometry x="1541" y="-1280" width="120" height="40" as="geometry" />
        </mxCell>
        <mxCell id="EwDdD5B7TcxTZYaxsXtc-1565" value="Pine" style="rounded=1;fillColor=#a29dc5;strokeColor=none;strokeWidth=3;shadow=0;html=1;fontColor=#FFFFFF;" vertex="1" parent="1">
          <mxGeometry x="1068.5" y="-1360" width="120" height="40" as="geometry" />
        </mxCell>
        <mxCell id="EwDdD5B7TcxTZYaxsXtc-1566" value="Lime" style="rounded=1;fillColor=#a29dc5;strokeColor=none;strokeWidth=3;shadow=0;html=1;fontColor=#FFFFFF;" vertex="1" parent="1">
          <mxGeometry x="1473.5" y="-1170" width="120" height="40" as="geometry" />
        </mxCell>
        <mxCell id="EwDdD5B7TcxTZYaxsXtc-1567" value="Chestnut" style="rounded=1;fillColor=#a29dc5;strokeColor=none;strokeWidth=3;shadow=0;html=1;fontColor=#FFFFFF;" vertex="1" parent="1">
          <mxGeometry x="1423.5" y="-1110" width="120" height="40" as="geometry" />
        </mxCell>
        <mxCell id="EwDdD5B7TcxTZYaxsXtc-1568" value="Beech" style="rounded=1;fillColor=#a29dc5;strokeColor=none;strokeWidth=3;shadow=0;html=1;fontColor=#FFFFFF;" vertex="1" parent="1">
          <mxGeometry x="1283.5" y="-1110" width="120" height="40" as="geometry" />
        </mxCell>
        <mxCell id="EwDdD5B7TcxTZYaxsXtc-1569" value="Poplar" style="rounded=1;fillColor=#a29dc5;strokeColor=none;strokeWidth=3;shadow=0;html=1;fontColor=#FFFFFF;" vertex="1" parent="1">
          <mxGeometry x="1143.5" y="-1145" width="120" height="40" as="geometry" />
        </mxCell>
        <mxCell id="EwDdD5B7TcxTZYaxsXtc-1570" value="Willow" style="rounded=1;fillColor=#a29dc5;strokeColor=none;strokeWidth=3;shadow=0;html=1;fontColor=#FFFFFF;" vertex="1" parent="1">
          <mxGeometry x="1038.5" y="-1200" width="120" height="40" as="geometry" />
        </mxCell>
        <mxCell id="EwDdD5B7TcxTZYaxsXtc-1571" value="" style="edgeStyle=none;endArrow=none;strokeWidth=3;strokeColor=#A29DC5;html=1;" edge="1" parent="1" source="EwDdD5B7TcxTZYaxsXtc-1559" target="EwDdD5B7TcxTZYaxsXtc-1560">
          <mxGeometry x="-496.5" y="-2305" width="100" height="100" as="geometry">
            <mxPoint x="-496.5" y="-2205" as="sourcePoint" />
            <mxPoint x="-396.5" y="-2305" as="targetPoint" />
          </mxGeometry>
        </mxCell>
        <mxCell id="EwDdD5B7TcxTZYaxsXtc-1572" value="Acacia" style="rounded=1;fillColor=#a29dc5;strokeColor=none;strokeWidth=3;shadow=0;html=1;fontColor=#FFFFFF;" vertex="1" parent="1">
          <mxGeometry x="1078.5" y="-1270" width="120" height="40" as="geometry" />
        </mxCell>
        <mxCell id="EwDdD5B7TcxTZYaxsXtc-1573" value="" style="edgeStyle=none;endArrow=none;strokeWidth=3;strokeColor=#A29DC5;html=1;" edge="1" parent="1" source="EwDdD5B7TcxTZYaxsXtc-1559" target="EwDdD5B7TcxTZYaxsXtc-1561">
          <mxGeometry x="-496.5" y="-2305" width="100" height="100" as="geometry">
            <mxPoint x="-496.5" y="-2205" as="sourcePoint" />
            <mxPoint x="-396.5" y="-2305" as="targetPoint" />
          </mxGeometry>
        </mxCell>
        <mxCell id="EwDdD5B7TcxTZYaxsXtc-1574" value="" style="edgeStyle=none;endArrow=none;strokeWidth=3;strokeColor=#A29DC5;html=1;" edge="1" parent="1" source="EwDdD5B7TcxTZYaxsXtc-1559" target="EwDdD5B7TcxTZYaxsXtc-1562">
          <mxGeometry x="-496.5" y="-2305" width="100" height="100" as="geometry">
            <mxPoint x="-496.5" y="-2205" as="sourcePoint" />
            <mxPoint x="-396.5" y="-2305" as="targetPoint" />
          </mxGeometry>
        </mxCell>
        <mxCell id="EwDdD5B7TcxTZYaxsXtc-1575" value="" style="edgeStyle=none;endArrow=none;strokeWidth=3;strokeColor=#A29DC5;html=1;" edge="1" parent="1" source="EwDdD5B7TcxTZYaxsXtc-1559" target="EwDdD5B7TcxTZYaxsXtc-1563">
          <mxGeometry x="-496.5" y="-2305" width="100" height="100" as="geometry">
            <mxPoint x="-496.5" y="-2205" as="sourcePoint" />
            <mxPoint x="-396.5" y="-2305" as="targetPoint" />
          </mxGeometry>
        </mxCell>
        <mxCell id="EwDdD5B7TcxTZYaxsXtc-1576" value="" style="edgeStyle=none;endArrow=none;strokeWidth=3;strokeColor=#A29DC5;html=1;" edge="1" parent="1" source="EwDdD5B7TcxTZYaxsXtc-1559" target="EwDdD5B7TcxTZYaxsXtc-1564">
          <mxGeometry x="-496.5" y="-2305" width="100" height="100" as="geometry">
            <mxPoint x="-496.5" y="-2205" as="sourcePoint" />
            <mxPoint x="-396.5" y="-2305" as="targetPoint" />
          </mxGeometry>
        </mxCell>
        <mxCell id="EwDdD5B7TcxTZYaxsXtc-1577" value="" style="edgeStyle=none;endArrow=none;strokeWidth=3;strokeColor=#A29DC5;html=1;" edge="1" parent="1" source="EwDdD5B7TcxTZYaxsXtc-1559" target="EwDdD5B7TcxTZYaxsXtc-1565">
          <mxGeometry x="-496.5" y="-2305" width="100" height="100" as="geometry">
            <mxPoint x="-496.5" y="-2205" as="sourcePoint" />
            <mxPoint x="-396.5" y="-2305" as="targetPoint" />
          </mxGeometry>
        </mxCell>
        <mxCell id="EwDdD5B7TcxTZYaxsXtc-1578" value="" style="edgeStyle=none;endArrow=none;strokeWidth=3;strokeColor=#A29DC5;html=1;" edge="1" parent="1" source="EwDdD5B7TcxTZYaxsXtc-1559" target="EwDdD5B7TcxTZYaxsXtc-1566">
          <mxGeometry x="-496.5" y="-2305" width="100" height="100" as="geometry">
            <mxPoint x="-496.5" y="-2205" as="sourcePoint" />
            <mxPoint x="-396.5" y="-2305" as="targetPoint" />
          </mxGeometry>
        </mxCell>
        <mxCell id="EwDdD5B7TcxTZYaxsXtc-1579" value="" style="edgeStyle=none;endArrow=none;strokeWidth=3;strokeColor=#A29DC5;html=1;" edge="1" parent="1" source="EwDdD5B7TcxTZYaxsXtc-1559" target="EwDdD5B7TcxTZYaxsXtc-1567">
          <mxGeometry x="-496.5" y="-2305" width="100" height="100" as="geometry">
            <mxPoint x="-496.5" y="-2205" as="sourcePoint" />
            <mxPoint x="-396.5" y="-2305" as="targetPoint" />
          </mxGeometry>
        </mxCell>
        <mxCell id="EwDdD5B7TcxTZYaxsXtc-1580" value="" style="edgeStyle=none;endArrow=none;strokeWidth=3;strokeColor=#A29DC5;html=1;" edge="1" parent="1" source="EwDdD5B7TcxTZYaxsXtc-1559" target="EwDdD5B7TcxTZYaxsXtc-1568">
          <mxGeometry x="-496.5" y="-2305" width="100" height="100" as="geometry">
            <mxPoint x="-496.5" y="-2205" as="sourcePoint" />
            <mxPoint x="-396.5" y="-2305" as="targetPoint" />
          </mxGeometry>
        </mxCell>
        <mxCell id="EwDdD5B7TcxTZYaxsXtc-1581" value="" style="edgeStyle=none;endArrow=none;strokeWidth=3;strokeColor=#A29DC5;html=1;" edge="1" parent="1" source="EwDdD5B7TcxTZYaxsXtc-1559" target="EwDdD5B7TcxTZYaxsXtc-1569">
          <mxGeometry x="-496.5" y="-2305" width="100" height="100" as="geometry">
            <mxPoint x="-496.5" y="-2205" as="sourcePoint" />
            <mxPoint x="-396.5" y="-2305" as="targetPoint" />
          </mxGeometry>
        </mxCell>
        <mxCell id="EwDdD5B7TcxTZYaxsXtc-1582" value="" style="edgeStyle=none;endArrow=none;strokeWidth=3;strokeColor=#A29DC5;html=1;" edge="1" parent="1" source="EwDdD5B7TcxTZYaxsXtc-1559" target="EwDdD5B7TcxTZYaxsXtc-1570">
          <mxGeometry x="-496.5" y="-2305" width="100" height="100" as="geometry">
            <mxPoint x="-496.5" y="-2205" as="sourcePoint" />
            <mxPoint x="-396.5" y="-2305" as="targetPoint" />
          </mxGeometry>
        </mxCell>
        <mxCell id="EwDdD5B7TcxTZYaxsXtc-1583" value="" style="edgeStyle=none;endArrow=none;strokeWidth=3;strokeColor=#A29DC5;html=1;" edge="1" parent="1" source="EwDdD5B7TcxTZYaxsXtc-1559" target="EwDdD5B7TcxTZYaxsXtc-1572">
          <mxGeometry x="-496.5" y="-2305" width="100" height="100" as="geometry">
            <mxPoint x="-496.5" y="-2205" as="sourcePoint" />
            <mxPoint x="-396.5" y="-2305" as="targetPoint" />
          </mxGeometry>
        </mxCell>
        <mxCell id="EwDdD5B7TcxTZYaxsXtc-1584" style="edgeStyle=none;rounded=0;html=1;exitX=0.5;exitY=1;endArrow=none;endFill=0;jettySize=auto;orthogonalLoop=1;strokeColor=#736CA8;strokeWidth=2;fillColor=#64bbe2;fontSize=20;fontColor=#23445D;" edge="1" parent="1" source="EwDdD5B7TcxTZYaxsXtc-1572" target="EwDdD5B7TcxTZYaxsXtc-1572">
          <mxGeometry relative="1" as="geometry" />
        </mxCell>
        <mxCell id="EwDdD5B7TcxTZYaxsXtc-1613" value="" style="group" vertex="1" connectable="0" parent="1">
          <mxGeometry x="1571" y="-2250" width="555" height="447.5" as="geometry" />
        </mxCell>
        <mxCell id="EwDdD5B7TcxTZYaxsXtc-1614" value="Object Storage" style="ellipse;whiteSpace=wrap;html=1;shadow=0;fontFamily=Helvetica;fontSize=20;fontColor=#FFFFFF;align=center;strokeWidth=3;fillColor=#E85642;strokeColor=none;" vertex="1" parent="EwDdD5B7TcxTZYaxsXtc-1613">
          <mxGeometry x="210" y="180" width="120" height="105" as="geometry" />
        </mxCell>
        <mxCell id="EwDdD5B7TcxTZYaxsXtc-1615" value="Philadendron" style="rounded=1;fillColor=#f08e81;strokeColor=none;strokeWidth=3;shadow=0;html=1;fontColor=#FFFFFF;" vertex="1" parent="EwDdD5B7TcxTZYaxsXtc-1613">
          <mxGeometry x="275" width="120" height="40" as="geometry" />
        </mxCell>
        <mxCell id="EwDdD5B7TcxTZYaxsXtc-1616" value="Dahlia" style="rounded=1;fillColor=#f08e81;strokeColor=none;strokeWidth=3;shadow=0;html=1;fontColor=#FFFFFF;" vertex="1" parent="EwDdD5B7TcxTZYaxsXtc-1613">
          <mxGeometry x="140" y="5" width="120" height="40" as="geometry" />
        </mxCell>
        <mxCell id="EwDdD5B7TcxTZYaxsXtc-1617" value="Petunia" style="rounded=1;fillColor=#f08e81;strokeColor=none;strokeWidth=3;shadow=0;html=1;fontColor=#FFFFFF;" vertex="1" parent="EwDdD5B7TcxTZYaxsXtc-1613">
          <mxGeometry x="75" y="60" width="120" height="40" as="geometry" />
        </mxCell>
        <mxCell id="EwDdD5B7TcxTZYaxsXtc-1618" value="Cactus" style="rounded=1;fillColor=#f08e81;strokeColor=none;strokeWidth=3;shadow=0;html=1;fontColor=#FFFFFF;" vertex="1" parent="EwDdD5B7TcxTZYaxsXtc-1613">
          <mxGeometry x="20" y="120" width="120" height="40" as="geometry" />
        </mxCell>
        <mxCell id="EwDdD5B7TcxTZYaxsXtc-1619" value="Tulip" style="rounded=1;fillColor=#f08e81;strokeColor=none;strokeWidth=3;shadow=0;html=1;fontColor=#FFFFFF;" vertex="1" parent="EwDdD5B7TcxTZYaxsXtc-1613">
          <mxGeometry y="175" width="120" height="40" as="geometry" />
        </mxCell>
        <mxCell id="EwDdD5B7TcxTZYaxsXtc-1620" value="Lilac" style="rounded=1;fillColor=#f08e81;strokeColor=none;strokeWidth=3;shadow=0;html=1;fontColor=#FFFFFF;" vertex="1" parent="EwDdD5B7TcxTZYaxsXtc-1613">
          <mxGeometry x="15" y="240" width="120" height="40" as="geometry" />
        </mxCell>
        <mxCell id="EwDdD5B7TcxTZYaxsXtc-1621" value="Dandelion" style="rounded=1;fillColor=#f08e81;strokeColor=none;strokeWidth=3;shadow=0;html=1;fontColor=#FFFFFF;" vertex="1" parent="EwDdD5B7TcxTZYaxsXtc-1613">
          <mxGeometry x="50" y="302.5" width="120" height="40" as="geometry" />
        </mxCell>
        <mxCell id="EwDdD5B7TcxTZYaxsXtc-1622" value="Poppy" style="rounded=1;fillColor=#f08e81;strokeColor=none;strokeWidth=3;shadow=0;html=1;fontColor=#FFFFFF;" vertex="1" parent="EwDdD5B7TcxTZYaxsXtc-1613">
          <mxGeometry x="120" y="352.5" width="120" height="40" as="geometry" />
        </mxCell>
        <mxCell id="EwDdD5B7TcxTZYaxsXtc-1623" value="Gerbera" style="rounded=1;fillColor=#f08e81;strokeColor=none;strokeWidth=3;shadow=0;html=1;fontColor=#FFFFFF;" vertex="1" parent="EwDdD5B7TcxTZYaxsXtc-1613">
          <mxGeometry x="230" y="407.5" width="120" height="40" as="geometry" />
        </mxCell>
        <mxCell id="EwDdD5B7TcxTZYaxsXtc-1624" value="Orchid" style="rounded=1;fillColor=#f08e81;strokeColor=none;strokeWidth=3;shadow=0;html=1;fontColor=#FFFFFF;" vertex="1" parent="EwDdD5B7TcxTZYaxsXtc-1613">
          <mxGeometry x="355" y="342.5" width="120" height="40" as="geometry" />
        </mxCell>
        <mxCell id="EwDdD5B7TcxTZYaxsXtc-1625" value="Gladiola" style="rounded=1;fillColor=#f08e81;strokeColor=none;strokeWidth=3;shadow=0;html=1;fontColor=#FFFFFF;" vertex="1" parent="EwDdD5B7TcxTZYaxsXtc-1613">
          <mxGeometry x="415" y="275" width="120" height="40" as="geometry" />
        </mxCell>
        <mxCell id="EwDdD5B7TcxTZYaxsXtc-1626" value="Rose" style="rounded=1;fillColor=#f08e81;strokeColor=none;strokeWidth=3;shadow=0;html=1;fontColor=#FFFFFF;" vertex="1" parent="EwDdD5B7TcxTZYaxsXtc-1613">
          <mxGeometry x="435" y="179.5" width="120" height="40" as="geometry" />
        </mxCell>
        <mxCell id="EwDdD5B7TcxTZYaxsXtc-1627" value="" style="edgeStyle=none;endArrow=none;strokeWidth=3;strokeColor=#F08E81;html=1;" edge="1" parent="EwDdD5B7TcxTZYaxsXtc-1613" source="EwDdD5B7TcxTZYaxsXtc-1614" target="EwDdD5B7TcxTZYaxsXtc-1626">
          <mxGeometry x="-160" y="-955" width="100" height="100" as="geometry">
            <mxPoint x="-160" y="-855" as="sourcePoint" />
            <mxPoint x="-60" y="-955" as="targetPoint" />
          </mxGeometry>
        </mxCell>
        <mxCell id="EwDdD5B7TcxTZYaxsXtc-1628" value="" style="edgeStyle=none;endArrow=none;strokeWidth=3;strokeColor=#F08E81;html=1;" edge="1" parent="EwDdD5B7TcxTZYaxsXtc-1613" source="EwDdD5B7TcxTZYaxsXtc-1614" target="EwDdD5B7TcxTZYaxsXtc-1615">
          <mxGeometry x="-160" y="-955" width="100" height="100" as="geometry">
            <mxPoint x="-160" y="-855" as="sourcePoint" />
            <mxPoint x="-60" y="-955" as="targetPoint" />
          </mxGeometry>
        </mxCell>
        <mxCell id="EwDdD5B7TcxTZYaxsXtc-1629" value="" style="edgeStyle=none;endArrow=none;strokeWidth=3;strokeColor=#F08E81;html=1;" edge="1" parent="EwDdD5B7TcxTZYaxsXtc-1613" source="EwDdD5B7TcxTZYaxsXtc-1614" target="EwDdD5B7TcxTZYaxsXtc-1616">
          <mxGeometry x="-160" y="-955" width="100" height="100" as="geometry">
            <mxPoint x="-160" y="-855" as="sourcePoint" />
            <mxPoint x="-60" y="-955" as="targetPoint" />
          </mxGeometry>
        </mxCell>
        <mxCell id="EwDdD5B7TcxTZYaxsXtc-1630" value="" style="edgeStyle=none;endArrow=none;strokeWidth=3;strokeColor=#F08E81;html=1;" edge="1" parent="EwDdD5B7TcxTZYaxsXtc-1613" source="EwDdD5B7TcxTZYaxsXtc-1614" target="EwDdD5B7TcxTZYaxsXtc-1617">
          <mxGeometry x="-160" y="-955" width="100" height="100" as="geometry">
            <mxPoint x="-160" y="-855" as="sourcePoint" />
            <mxPoint x="-60" y="-955" as="targetPoint" />
          </mxGeometry>
        </mxCell>
        <mxCell id="EwDdD5B7TcxTZYaxsXtc-1631" value="" style="edgeStyle=none;endArrow=none;strokeWidth=3;strokeColor=#F08E81;html=1;" edge="1" parent="EwDdD5B7TcxTZYaxsXtc-1613" source="EwDdD5B7TcxTZYaxsXtc-1614" target="EwDdD5B7TcxTZYaxsXtc-1618">
          <mxGeometry x="-160" y="-955" width="100" height="100" as="geometry">
            <mxPoint x="-160" y="-855" as="sourcePoint" />
            <mxPoint x="-60" y="-955" as="targetPoint" />
          </mxGeometry>
        </mxCell>
        <mxCell id="EwDdD5B7TcxTZYaxsXtc-1632" value="" style="edgeStyle=none;endArrow=none;strokeWidth=3;strokeColor=#F08E81;html=1;" edge="1" parent="EwDdD5B7TcxTZYaxsXtc-1613" source="EwDdD5B7TcxTZYaxsXtc-1614" target="EwDdD5B7TcxTZYaxsXtc-1619">
          <mxGeometry x="-160" y="-955" width="100" height="100" as="geometry">
            <mxPoint x="-160" y="-855" as="sourcePoint" />
            <mxPoint x="-60" y="-955" as="targetPoint" />
          </mxGeometry>
        </mxCell>
        <mxCell id="EwDdD5B7TcxTZYaxsXtc-1633" value="" style="edgeStyle=none;endArrow=none;strokeWidth=3;strokeColor=#F08E81;html=1;" edge="1" parent="EwDdD5B7TcxTZYaxsXtc-1613" source="EwDdD5B7TcxTZYaxsXtc-1614" target="EwDdD5B7TcxTZYaxsXtc-1620">
          <mxGeometry x="-160" y="-955" width="100" height="100" as="geometry">
            <mxPoint x="-160" y="-855" as="sourcePoint" />
            <mxPoint x="-60" y="-955" as="targetPoint" />
          </mxGeometry>
        </mxCell>
        <mxCell id="EwDdD5B7TcxTZYaxsXtc-1634" value="" style="edgeStyle=none;endArrow=none;strokeWidth=3;strokeColor=#F08E81;html=1;" edge="1" parent="EwDdD5B7TcxTZYaxsXtc-1613" source="EwDdD5B7TcxTZYaxsXtc-1614" target="EwDdD5B7TcxTZYaxsXtc-1621">
          <mxGeometry x="-160" y="-955" width="100" height="100" as="geometry">
            <mxPoint x="-160" y="-855" as="sourcePoint" />
            <mxPoint x="-60" y="-955" as="targetPoint" />
          </mxGeometry>
        </mxCell>
        <mxCell id="EwDdD5B7TcxTZYaxsXtc-1635" value="" style="edgeStyle=none;endArrow=none;strokeWidth=3;strokeColor=#F08E81;html=1;" edge="1" parent="EwDdD5B7TcxTZYaxsXtc-1613" source="EwDdD5B7TcxTZYaxsXtc-1614" target="EwDdD5B7TcxTZYaxsXtc-1622">
          <mxGeometry x="-160" y="-955" width="100" height="100" as="geometry">
            <mxPoint x="-160" y="-855" as="sourcePoint" />
            <mxPoint x="-60" y="-955" as="targetPoint" />
          </mxGeometry>
        </mxCell>
        <mxCell id="EwDdD5B7TcxTZYaxsXtc-1636" value="" style="edgeStyle=none;endArrow=none;strokeWidth=3;strokeColor=#F08E81;html=1;" edge="1" parent="EwDdD5B7TcxTZYaxsXtc-1613" source="EwDdD5B7TcxTZYaxsXtc-1614" target="EwDdD5B7TcxTZYaxsXtc-1623">
          <mxGeometry x="-160" y="-955" width="100" height="100" as="geometry">
            <mxPoint x="-160" y="-855" as="sourcePoint" />
            <mxPoint x="-60" y="-955" as="targetPoint" />
          </mxGeometry>
        </mxCell>
        <mxCell id="EwDdD5B7TcxTZYaxsXtc-1637" value="" style="edgeStyle=none;endArrow=none;strokeWidth=3;strokeColor=#F08E81;html=1;" edge="1" parent="EwDdD5B7TcxTZYaxsXtc-1613" source="EwDdD5B7TcxTZYaxsXtc-1614" target="EwDdD5B7TcxTZYaxsXtc-1624">
          <mxGeometry x="-160" y="-955" width="100" height="100" as="geometry">
            <mxPoint x="-160" y="-855" as="sourcePoint" />
            <mxPoint x="-60" y="-955" as="targetPoint" />
          </mxGeometry>
        </mxCell>
        <mxCell id="EwDdD5B7TcxTZYaxsXtc-1638" value="" style="edgeStyle=none;endArrow=none;strokeWidth=3;strokeColor=#F08E81;html=1;" edge="1" parent="EwDdD5B7TcxTZYaxsXtc-1613" source="EwDdD5B7TcxTZYaxsXtc-1614" target="EwDdD5B7TcxTZYaxsXtc-1625">
          <mxGeometry x="-160" y="-955" width="100" height="100" as="geometry">
            <mxPoint x="-160" y="-855" as="sourcePoint" />
            <mxPoint x="-60" y="-955" as="targetPoint" />
          </mxGeometry>
        </mxCell>
        <mxCell id="EwDdD5B7TcxTZYaxsXtc-1639" style="endArrow=none;strokeWidth=6;strokeColor=#736CA8;html=1;" edge="1" parent="EwDdD5B7TcxTZYaxsXtc-1613" source="EwDdD5B7TcxTZYaxsXtc-1559">
          <mxGeometry relative="1" as="geometry">
            <mxPoint x="260" y="785" as="sourcePoint" />
            <mxPoint x="280" y="250" as="targetPoint" />
          </mxGeometry>
        </mxCell>
        <mxCell id="EwDdD5B7TcxTZYaxsXtc-1640" style="endArrow=none;strokeWidth=6;strokeColor=#1699D3;html=1;" edge="1" parent="1" target="EwDdD5B7TcxTZYaxsXtc-1559">
          <mxGeometry relative="1" as="geometry">
            <mxPoint x="1899" y="-647.5" as="sourcePoint" />
            <mxPoint x="1711" y="-1132.5" as="targetPoint" />
          </mxGeometry>
        </mxCell>
      </root>
    </mxGraphModel>
  </diagram>
</mxfile>
